<svg xmlns="http://www.w3.org/2000/svg" xmlns:xlink="http://www.w3.org/1999/xlink" viewBox="0 0 5.3 5.3"><defs><style>.cls-1{isolation:isolate;}.cls-2{fill:#006747;}.cls-3{fill:#cd1225;}.cls-4{fill:#fff;}.cls-5{fill:#fbc942;}.cls-6{fill:#bd9b37;}.cls-7{fill:#9ba068;}.cls-8{fill:#707633;}.cls-9{fill:#006748;}.cls-10{fill:#cc2029;}.cls-11{fill:#30c1db;}.cls-12{fill:#f7c740;}.cls-13{fill:#0c72a6;}.cls-14{fill:#f8a952;}.cls-15{fill:#943120;}.cls-16{fill:#231f20;}.cls-17{fill:#0b8388;}.cls-18{fill:#8bbdbe;}.cls-19{fill:#05534e;}.cls-20{fill:url(#radial-gradient);}.cls-21{fill:url(#radial-gradient-2);}.cls-22{fill:url(#radial-gradient-3);}.cls-23{fill:url(#radial-gradient-4);}.cls-24{fill:url(#radial-gradient-5);}.cls-25{fill:url(#radial-gradient-6);}.cls-26{fill:url(#radial-gradient-7);}.cls-27{fill:url(#radial-gradient-8);}.cls-28{fill:url(#radial-gradient-9);}.cls-29{fill:url(#radial-gradient-10);}.cls-30{fill:url(#radial-gradient-11);}.cls-31{fill:url(#radial-gradient-12);}.cls-32{fill:url(#radial-gradient-13);}.cls-33{fill:url(#radial-gradient-14);}.cls-34{fill:url(#radial-gradient-15);}.cls-35{fill:#f8c73e;}.cls-36{fill:#77722f;}.cls-37{fill:#a7ab71;}.cls-38{fill:#949457;}.cls-39{fill:#ae6f2a;}.cls-40{fill:#fff200;}.cls-41{fill:#c5c6a6;}.cls-42{fill:#a3a395;}.cls-43{fill:#4c2915;}.cls-44{fill:#8e4520;}.cls-45{fill:#d1a467;}.cls-46{fill:#aa6c2a;}.cls-47{fill:#daac6d;}.cls-48{fill:#8f4620;}.cls-49{fill:#bc7e2f;}.cls-50{fill:#e6e7e8;}.cls-51{fill:#f06d19;}.cls-52{mix-blend-mode:multiply;}.cls-53{fill:url(#linear-gradient);}.cls-54{fill:url(#linear-gradient-2);}</style><radialGradient id="radial-gradient" cx="-295.76" cy="-46.19" r="0.01" gradientTransform="matrix(1.74, 0.41, -0.56, 2.36, 490.03, 234.42)" gradientUnits="userSpaceOnUse"><stop offset="0" stop-color="#fbc942"/><stop offset="0.38" stop-color="#f9c742"/><stop offset="0.59" stop-color="#f1c140"/><stop offset="0.75" stop-color="#e3b73e"/><stop offset="0.9" stop-color="#cfa93a"/><stop offset="1" stop-color="#bd9b37"/></radialGradient><radialGradient id="radial-gradient-2" cx="-295.7" cy="-49.06" r="0.02" gradientTransform="matrix(1.74, 0.41, -0.56, 2.34, 488.52, 240.34)" gradientUnits="userSpaceOnUse"><stop offset="0" stop-color="#fff"/><stop offset="1" stop-color="#f3798d"/></radialGradient><radialGradient id="radial-gradient-3" cx="-295.75" cy="-473.67" r="0.01" gradientTransform="matrix(1.74, 0.41, -0.41, 1.74, 319.64, 948.26)" gradientUnits="userSpaceOnUse"><stop offset="0" stop-color="#f6e11c"/><stop offset="1" stop-color="#e82735"/></radialGradient><radialGradient id="radial-gradient-4" cx="-295.78" cy="-473.67" r="0.01" xlink:href="#radial-gradient-3"/><radialGradient id="radial-gradient-5" cx="-295.76" cy="-473.67" r="0.01" xlink:href="#radial-gradient-3"/><radialGradient id="radial-gradient-6" cx="271.16" cy="1338.86" r="0.01" gradientTransform="matrix(1.52, -0.94, 1.28, 2.06, -2122.1, -2502.46)" xlink:href="#radial-gradient"/><radialGradient id="radial-gradient-7" cx="271.26" cy="1346.91" r="0.03" gradientTransform="matrix(1.52, -0.94, 1.27, 2.05, -2118.89, -2497.04)" xlink:href="#radial-gradient-2"/><radialGradient id="radial-gradient-8" cx="271.33" cy="1407.36" r="0.01" gradientTransform="translate(-1734.94 -1877.87) rotate(-31.81) scale(1.79)" xlink:href="#radial-gradient-3"/><radialGradient id="radial-gradient-9" cx="271.3" cy="1407.36" r="0.01" gradientTransform="translate(-1734.94 -1877.87) rotate(-31.81) scale(1.79)" xlink:href="#radial-gradient-3"/><radialGradient id="radial-gradient-10" cx="271.32" cy="1407.35" r="0.01" gradientTransform="translate(-1734.94 -1877.87) rotate(-31.81) scale(1.79)" xlink:href="#radial-gradient-3"/><radialGradient id="radial-gradient-11" cx="-1403.92" cy="-295.28" r="0.01" gradientTransform="matrix(1.29, 1.23, -1.83, 1.93, 1278.15, 2300.22)" xlink:href="#radial-gradient"/><radialGradient id="radial-gradient-12" cx="-1404.15" cy="-299.95" r="0.02" gradientTransform="matrix(1.29, 1.23, -1.82, 1.91, 1274.18, 2305)" xlink:href="#radial-gradient-2"/><radialGradient id="radial-gradient-13" cx="-1404.13" cy="-812.28" r="0.01" gradientTransform="matrix(1.29, 1.23, -1.35, 1.42, 723.64, 2883.41)" xlink:href="#radial-gradient-3"/><radialGradient id="radial-gradient-14" cx="-1404.16" cy="-812.28" r="0.01" gradientTransform="matrix(1.29, 1.23, -1.35, 1.42, 723.64, 2883.41)" xlink:href="#radial-gradient-3"/><radialGradient id="radial-gradient-15" cx="-1404.15" cy="-812.28" r="0.01" gradientTransform="matrix(1.29, 1.23, -1.35, 1.42, 723.64, 2883.41)" xlink:href="#radial-gradient-3"/><linearGradient id="linear-gradient" x1="-86.23" y1="4.32" x2="-80.93" y2="4.32" gradientTransform="translate(-59.5 -53.39) rotate(-135)" gradientUnits="userSpaceOnUse"><stop offset="0" stop-color="#999"/><stop offset="0.1" stop-color="#a8a8a8"/><stop offset="0.36" stop-color="#cecece"/><stop offset="0.61" stop-color="#e9e9e9"/><stop offset="0.83" stop-color="#f9f9f9"/><stop offset="1" stop-color="#fff"/></linearGradient><linearGradient id="linear-gradient-2" x1="-160.53" y1="-47.13" x2="-157.04" y2="-43.63" gradientTransform="translate(161.41 48)" xlink:href="#linear-gradient"/></defs><g class="cls-1"><g id="Layer_2" data-name="Layer 2"><g id="Layer_1-2" data-name="Layer 1"><path class="cls-2" d="M1.11.5V4.81a3,3,0,0,1-.33-.28,2.69,2.69,0,0,1-.63-1A2.73,2.73,0,0,1,0,2.65a2.62,2.62,0,0,1,.15-.88,2.69,2.69,0,0,1,.63-1A1.75,1.75,0,0,1,1.11.5Z"/><path class="cls-3" d="M5.3,2.65a2.73,2.73,0,0,1-.15.89,2.54,2.54,0,0,1-.62,1,4.09,4.09,0,0,1-.33.28V.5a2.73,2.73,0,0,1,.33.28,2.54,2.54,0,0,1,.62,1A2.62,2.62,0,0,1,5.3,2.65Z"/><path class="cls-4" d="M4.2.5V4.81L3.91,5a2.64,2.64,0,0,1-1.26.31A2.67,2.67,0,0,1,1.39,5l-.28-.18V.5A1.67,1.67,0,0,1,1.39.32,2.6,2.6,0,0,1,2.63,0h0A2.57,2.57,0,0,1,3.91.32,1.75,1.75,0,0,1,4.2.5Z"/><path class="cls-5" d="M3.59,3.2a0,0,0,0,1,0,0,0,0,0,0,1,0,0h0v0s0,0,0,0Z"/><polygon class="cls-5" points="3.51 3.18 3.56 3.22 3.5 3.2 3.5 3.2 3.48 3.15 3.51 3.18 3.51 3.18 3.51 3.18"/><path class="cls-5" d="M3.49,3.12l0,0h0v0h0S3.49,3.11,3.49,3.12Z"/><path class="cls-6" d="M3.59,3.2a0,0,0,0,0,0,0l0,0h0l0,0v0s0,0,0,0,0,0,0,0h0l0,.06h0l.07,0h0l0,0h0a0,0,0,0,0,0,0A0,0,0,0,0,3.59,3.24Zm-.12-.06h0v0h0s0,0,0,0Zm0,.06h0l0,0,0,0h0l.05,0Zm.09,0h0v0s0,0,0,0h0a0,0,0,0,1,0,0A0,0,0,0,1,3.59,3.2Z"/><path class="cls-5" d="M3.75,2.83s0,0,0,0,0,0,0,0a0,0,0,0,1,0,0h0a0,0,0,0,1,0,0Z"/><polygon class="cls-5" points="3.67 2.83 3.73 2.85 3.67 2.85 3.66 2.85 3.63 2.81 3.67 2.83 3.67 2.83 3.67 2.83"/><path class="cls-5" d="M3.63,2.78s0,0,0,0,0,0,0,0h0A0,0,0,0,1,3.63,2.78Z"/><path class="cls-6" d="M3.77,2.84s0,0,0,0a0,0,0,0,0,0,0H3.66l0,0a0,0,0,0,0,0,0,0,0,0,0,0,0,0s0,0,0,0a0,0,0,0,1,0,0h0l0,.05h.07s0,0,0,0h0S3.78,2.85,3.77,2.84Zm-.15,0s0,0,0,0h0a0,0,0,0,1,0,0S3.63,2.8,3.62,2.8Zm0,.05h0l0,0,0,0h0Zm.09,0a0,0,0,0,1,0,0h0s0,0,0,0h0s0,0,0,0S3.77,2.86,3.76,2.87Z"/><path class="cls-5" d="M3.27,3.47a0,0,0,0,1,0,0l0,0h0v0Z"/><polygon class="cls-5" points="3.19 3.44 3.25 3.48 3.19 3.46 3.18 3.45 3.17 3.4 3.19 3.44 3.19 3.44 3.19 3.44"/><path class="cls-5" d="M3.18,3.37l0,0h0v0a0,0,0,0,1,0,0h0A0,0,0,0,1,3.18,3.37Z"/><path class="cls-6" d="M3.27,3.46a0,0,0,0,0,0,0l0,0h0l0,0s0,0,0,0a0,0,0,0,0,0,0,0,0,0,0,0,0,0v0h0v.06h0l.06,0h0s0,0,0,0h0l0,0S3.28,3.46,3.27,3.46Zm-.11-.07h0v0a0,0,0,0,1,0,0h0a0,0,0,0,1,0,0Zm0,.07h0V3.4l0,0h0l0,0Zm.08,0h0v0h0a0,0,0,0,1,0,0Z"/><path class="cls-7" d="M3.08,3.57l.07,0,0,0a.15.15,0,0,0-.1,0s-.12.06-.18,0H3Z"/><path class="cls-7" d="M3.17,3.49h0a.31.31,0,0,0-.18,0,.14.14,0,0,1-.13,0h.05L3,3.5a.11.11,0,0,1,.08,0l0,0h0a.32.32,0,0,0-.13.07l0,0H2.77a.41.41,0,0,0-.3.08h0l0,0h0a.35.35,0,0,1,.22,0h.06s.07,0,.13,0a.47.47,0,0,1,.17,0l0,0Z"/><path class="cls-7" d="M3.74,2.93h0A.36.36,0,0,0,3.68,3a.14.14,0,0,1-.1.1h0c.06,0,.09-.1.12-.14A.19.19,0,0,1,3.74,2.93Z"/><path class="cls-7" d="M3.69,2.82a.19.19,0,0,1,0-.08V2.66h0a.24.24,0,0,0-.06-.1.25.25,0,0,1,0,.07s0,0,0,.07a.29.29,0,0,1,0,.09h0a.07.07,0,0,0,0,0h0v0h0c0,.08-.06.2-.11.22a.32.32,0,0,1,.07-.18h0v0A.52.52,0,0,0,3.53,3a.21.21,0,0,0,0,.11s0,0,0,.05h0l0,0h0a1.29,1.29,0,0,1-.17.13l0,0a.34.34,0,0,1,.08-.09.14.14,0,0,0,0-.09h0s0,.07,0,.08l-.06.07s0,0,0,0,0,0,0,0h0l-.08.08h0l.06-.06h0a.39.39,0,0,0,.13,0,.77.77,0,0,0,.13-.12h0l0,0a.13.13,0,0,0,0-.06l0,0h0l0,0h0A.39.39,0,0,0,3.64,3l0,0V2.86A.05.05,0,0,1,3.69,2.82Z"/><path class="cls-7" d="M3.75,2.75a.13.13,0,0,0-.06.07h0V2.74a.43.43,0,0,1,0-.05.3.3,0,0,0,0-.11V2.52a.29.29,0,0,1,0,.1s0,0,0,.06,0,.08,0,.09,0,0,0-.06a.27.27,0,0,0,0-.13h0s.05.07,0,.11S3.76,2.73,3.75,2.75Z"/><path class="cls-8" d="M3.78,2.58a.27.27,0,0,1,0,.13s0,0,0,.06,0-.06,0-.09,0,0,0-.06S3.77,2.58,3.78,2.58Z"/><path class="cls-8" d="M3.69,2.82a.19.19,0,0,1,0-.08V2.66h0a.17.17,0,0,1,0-.14h0v.06a.3.3,0,0,1,0,.11.43.43,0,0,0,0,.05v.07h0Z"/><path class="cls-8" d="M3.63,2.62s0-.05,0-.06h0a.25.25,0,0,1,0,.07s0,0,0,.07a.29.29,0,0,1,0,.09h0s0,0,0-.06A.23.23,0,0,1,3.63,2.62Z"/><path class="cls-8" d="M3.54,3.15A.39.39,0,0,0,3.64,3l0,0a.15.15,0,0,1,.07,0A.19.19,0,0,0,3.67,3s-.06.12-.12.14Z"/><path class="cls-8" d="M3.66,2.87h0v0c0,.08-.06.2-.11.22a.32.32,0,0,1,.07-.18h0Z"/><path class="cls-8" d="M3.52,3.11s0,0,0,.05h0a0,0,0,0,0,0,0c0-.05,0-.11,0-.15a.25.25,0,0,1,.1-.08A.52.52,0,0,0,3.53,3,.21.21,0,0,0,3.52,3.11Z"/><path class="cls-8" d="M3.23,3.43a.39.39,0,0,0,.13,0,.77.77,0,0,0,.13-.12.2.2,0,0,1,0,.05.17.17,0,0,1-.11.09Z"/><path class="cls-8" d="M3.3,3.27s.07-.06.07-.09,0,.07,0,.08l-.06.07s0,0,0,0h0A.11.11,0,0,1,3.3,3.27Z"/><path class="cls-8" d="M3.48,3.21a1.29,1.29,0,0,1-.17.13l0,0a.34.34,0,0,1,.08-.09h0l.1,0Z"/><path class="cls-8" d="M3.15,3.55l-.07,0L3,3.61H2.89l-.08-.05h0s.07,0,.13,0a.47.47,0,0,1,.17,0Z"/><path class="cls-8" d="M3.15,3.48h0a.31.31,0,0,0-.18,0,.14.14,0,0,1-.13,0h.05L3,3.5a.11.11,0,0,1,.08,0Z"/><path class="cls-8" d="M3,3.43h0a.32.32,0,0,0-.13.07l0,0h0A.2.2,0,0,1,3,3.43Z"/><path class="cls-8" d="M2.47,3.6h0S2.46,3.6,2.47,3.6Z"/><path class="cls-5" d="M2.14,3.37h0s0,0,0,0h0S2.14,3.36,2.14,3.37Z"/><path class="cls-5" d="M2.15,3.4s0,0,0,0a0,0,0,0,1,0,0h0a0,0,0,0,1,0,0h0A0,0,0,0,1,2.15,3.4Z"/><polygon class="cls-5" points="2.13 3.47 2.13 3.47 2.13 3.41 2.14 3.41 2.15 3.47 2.08 3.48 2.08 3.47 2.13 3.47"/><path class="cls-5" d="M2,3.47v0H2s0,0,0,0Z"/><path class="cls-5" d="M2,3.45h0s0,0,0,.06h0l0,0s0,0,0,0Z"/><path class="cls-6" d="M2.16,3.37h0s0,0,0,0h0a0,0,0,0,0,0,0h0v0H2.07s0,0,0,0H2v0H2l0,0h0v0h.07V3.41h0A0,0,0,0,0,2.16,3.37Zm0,0h0s0,0,0,0h0S2.11,3.36,2.12,3.36ZM2,3.49s0,0,0,0H2v0Zm.07,0h0l0,0s0,0,0,0h0S2.08,3.5,2.08,3.51Zm.07,0h0V3.41h0Zm0,0a0,0,0,0,1,0,0s0,0,0,0h0a0,0,0,0,1,0,0h0a0,0,0,0,1,0,0S2.13,3.41,2.12,3.41Z"/><path class="cls-5" d="M1.85,3.1h0s0,0,0,0h0Z"/><path class="cls-5" d="M1.86,3.13h0v0s0,0,0,0h0s0,0,0,0h0A0,0,0,0,1,1.86,3.13Z"/><polygon class="cls-5" points="1.82 3.19 1.82 3.19 1.84 3.14 1.85 3.14 1.84 3.21 1.77 3.2 1.77 3.19 1.82 3.19"/><path class="cls-5" d="M1.73,3.18v0s0,0,0,0h0A0,0,0,0,1,1.73,3.18Z"/><path class="cls-5" d="M1.74,3.16h0s0,.06,0,.06h0a0,0,0,0,1,0,0v0Z"/><path class="cls-6" d="M1.87,3.11h0a0,0,0,0,0,0,0h0l0,0h0l0,0h0v0H1.77v0h0s0,0,0,0h0a0,0,0,0,0,0,0h0a0,0,0,0,0,0,0h0v0h.07v0h0v0h0A0,0,0,0,0,1.87,3.11Zm-.14.1s0,0,0,0h0a0,0,0,0,1,0,0Zm0,0h0a0,0,0,0,1,0,0v0h0S1.76,3.22,1.76,3.22Zm.08-.13h0S1.83,3.09,1.84,3.09Zm0,.1v0h0v0h0Zm0-.06h0v0s0,0,0,0h0s0,0,0,0h0A0,0,0,0,1,1.86,3.13Z"/><path class="cls-5" d="M1.7,2.79h0s0,0,0,0h0Z"/><path class="cls-5" d="M1.69,2.82h0v0h.05A0,0,0,0,1,1.69,2.82Z"/><polygon class="cls-5" points="1.63 2.86 1.64 2.86 1.67 2.82 1.68 2.82 1.64 2.88 1.58 2.84 1.59 2.83 1.63 2.86"/><path class="cls-5" d="M1.56,2.81v0s0,0,0,0,0,0,0,0Z"/><path class="cls-5" d="M1.57,2.79h0s0,.06,0,.06,0,0,0,0,0,0,0,0v0Z"/><path class="cls-6" d="M1.71,2.79h0s0,0,0,0h0s0,0,0,0h0s0,0,0,0h0l0,0,0,0h0l0,0v0H1.54s0,0,0,0,0,0,0,0h0s0,0,0,0h0s0,0,0,0v0l0,0h0l0-.05h0a0,0,0,0,0,0,0Zm0,0h0S1.68,2.77,1.7,2.77Zm-.17,0s0,0,0,0h0v0S1.52,2.82,1.53,2.81Zm0,0s0,0,0,0,0,0,0,0v0h0S1.57,2.86,1.57,2.86Zm.08,0h0l0,0h0l0,0h0v0l0,0h0Zm0-.05h0v0h.05A0,0,0,0,1,1.69,2.82Z"/><path class="cls-8" d="M2.8,3.62s0,0,0,0h0s0,0,0,0Z"/><path class="cls-7" d="M2.73,3.55l0,0H2.49s0,0,0,0l0,0v0l0,0a.12.12,0,0,1,0,0,.08.08,0,0,1-.06,0s0,0,0,0a.07.07,0,0,0-.05,0,.08.08,0,0,1,0,0h0v0l0,0s0,0,0,.06l0,0,0,0h0l0,0s0,0,0,0H2.12a0,0,0,0,0,0,0H2.2s0,0,0,0,0,0,0,0,0,0,0,0h0a0,0,0,0,1,0,0,0,0,0,0,1,0,0h0s0,0,0,0h0s0,0,0,0h0l0,0a.18.18,0,0,1,.07,0H2.7l.1.06s0,0,0,0Z"/><path class="cls-8" d="M2.46,3.52l0,0s0,0,0,0l0,0,0,0a.07.07,0,0,0,0,0l0,0s0,0,0,0h0a.06.06,0,0,0,0,0s0,0,0,0,0,0,0,0v0a0,0,0,0,0,0,0s0,0,0,0h0a0,0,0,0,1,0,0l0,0H2.2s0,0,0,0l0,0h0l0,0,0,0s0,0,0-.06l0,0v0h0a.08.08,0,0,0,0,0,.07.07,0,0,1,.05,0s0,0,0,0a.08.08,0,0,0,.06,0,.12.12,0,0,0,0,0l0,0v0l0,0s0,0,0,0Z"/><path class="cls-8" d="M1.88,3.2v0h0s0,0,0,0a.08.08,0,0,1,0,0h0s0,0,0,0a.28.28,0,0,1,0,.06H2s0,0,0,0,0,0,0,0,0,.07,0,.07h0s0,0,0,0v0l0,0h0s0-.05,0-.05v0l0,0,0,0,0,0s-.06,0-.07,0h0a.07.07,0,0,0,.06,0s0,0,0-.08a.35.35,0,0,1,0,.07l0,0H2a.28.28,0,0,1,0-.08v0l0,0h0S1.89,3.21,1.88,3.2Z"/><path class="cls-7" d="M2.16,3.48l-.06,0h0s0-.05,0-.05v0l0,0,0,0,0,0s-.06,0-.07,0h0a.07.07,0,0,0,.06,0s0,0,0-.08a.35.35,0,0,1,0,.07l0,0H2a.28.28,0,0,1,0-.08v0l0,0h0s0,0,0,0v0l0,0-.05,0s0,0,0,0h0l0,0,0,0L1.67,3h.06s0-.07,0-.09,0,0,0,.07,0,0-.07,0h0v0l0,0s0,0,0,0V2.79s0,0,0,0,0,0,0-.06,0,0,0,0H1.63v0s0,0,.05,0v0s0,0,0,0,0,0,0,0,0,0,0,0,0,0,0,0a.09.09,0,0,1-.06,0s0,0,0,0h0a.43.43,0,0,0,0,.05l0,0-.06,0s0,0,0,0a.2.2,0,0,1,0,.08h0l0,0h0a.23.23,0,0,1,.05,0h0l0,0s0,0,0,.06h0v.08s0,0,0,0,0,0,0,0h0a0,0,0,0,0,0,0,0,0,0,0,0,0,0s0,0,.06,0V3h0a0,0,0,0,0,0,0s0,0,0,0h0s0,0,0,0h.07a.94.94,0,0,0,.1.1h0s.06,0,.06,0H1.84s0,0,0,0,0,0,0,0h0l0,0H1.87a.05.05,0,0,0,0,0s0,0,0,0l0,0v0h.11l.07.06A0,0,0,0,0,2.16,3.48Z"/><path class="cls-8" d="M1.81,3s0,0,0,.06,0,0,0,.05,0,0,0,0h0l0,0,0,0L1.67,3h.06s0-.07,0-.09,0,0,0,.07,0,0-.07,0h0v0l0,0s0,0,0,0h0a0,0,0,0,1,0,0s0,0,0,0h0s0,0,0,0a0,0,0,0,1,0,0s0,0,0,0h0s0,0,0,.05a.15.15,0,0,1,0,.06s0,0,0,0S1.81,3,1.81,3Z"/><path class="cls-8" d="M1.5,2.66h.06l0,0,0,0a0,0,0,0,1,0,0h0a0,0,0,0,0,0,0h0s0,0,0,0,0,0,0,0h0a0,0,0,0,0,0,0s0,0,0,0h0a.09.09,0,0,1-.06,0s0,0,0,0h0a.43.43,0,0,0,0,.05l0,0-.06,0s0,0,0,0a.2.2,0,0,1,0,.08h0l0,0h0a.23.23,0,0,1,.05,0h0l0,0s0,0,0,.06a.21.21,0,0,0,0-.06l-.05,0s0,0,0,0A0,0,0,0,1,1.5,2.66Z"/><path class="cls-4" d="M2.78,3.68h0l-.07-.07,0,0A.6.6,0,0,1,2.78,3.68Z"/><path class="cls-4" d="M2.68,3.49v.1a.35.35,0,0,0-.11.1h0c0-.05.1-.09.1-.09h0v-.1Z"/><path class="cls-9" d="M2.67,3.62l.07.07,0,0-.07-.07Z"/><path class="cls-9" d="M2.63,3.49v.1h0s-.08,0-.1.09h0a.2.2,0,0,1,.11-.11V3.49Z"/><path class="cls-10" d="M2.81,3.69h0A.6.6,0,0,0,2.7,3.6l0,0,0,0-.06.07s0,0,0,0a.35.35,0,0,1,.11-.1v-.1h0v.09A.2.2,0,0,1,2.81,3.69Z"/><path class="cls-11" d="M2.05,3.12s.13.06.13.09,0,0,0,0,0,0,.06,0,.13,0,.13,0-.06.06-.06.06a.48.48,0,0,1,.19.05.49.49,0,0,0,.24,0,.33.33,0,0,0,.17-.07.41.41,0,0,1,.16,0S3,3.35,3,3.32s0,0,.08-.06a.14.14,0,0,0,.07,0s0,0,0,0l-.19,0a2.53,2.53,0,0,1-.47,0,.32.32,0,0,1-.12-.11s0,.09,0,.07L2,3.09S2.05,3.12,2.05,3.12Z"/><path class="cls-4" d="M2.09,3.1l0,0s0,0,0,0,0,0,0,0,0,0,0,0h0Z"/><path class="cls-12" d="M2.1,3.11v0l0,0H2a.07.07,0,0,0,0,.06.07.07,0,0,0,0,0h0v0Zm0,0v0h0a0,0,0,0,1,0,0,0,0,0,0,1,0,0h.05Z"/><path class="cls-4" d="M2.17,3.25a0,0,0,0,1,0,0,0,0,0,0,1,0,0s0,0,0,0a0,0,0,0,1,0,0h0Z"/><path class="cls-13" d="M2.18,3.25h0s0,0,0,0,0,0,0,0,0,0,0,0h0l0,0h0Zm-.05,0s0,0,0,0v0h0S2.14,3.29,2.13,3.28Z"/><path class="cls-4" d="M2.34,3.14h0a0,0,0,0,1,0,0,0,0,0,0,1,0,0,0,0,0,0,1,0,0Z"/><path class="cls-13" d="M2.35,3.1s0,0-.05,0a0,0,0,0,0,0,0s0,0,0,0h.07Zm0,0h0a0,0,0,0,1,0,0h0Z"/><path class="cls-4" d="M2.32,3.37s0,0,0,0a.06.06,0,0,1-.06,0s0,0,0,0a0,0,0,0,1,0,0h0S2.32,3.36,2.32,3.37Z"/><path class="cls-12" d="M2.33,3.36h0s0,0,0,0H2.26a0,0,0,0,0,0,0s0,0,0,0h0s0,0,.05,0v0h0Zm0,0s0,0,0,0a0,0,0,0,1,0,0h.06Z"/><path class="cls-4" d="M3,3.32H3a.08.08,0,0,0,0,0s0,0,0,0,0,0,0,0A0,0,0,0,0,3,3.32Z"/><path class="cls-13" d="M3.06,3.32H3a0,0,0,0,0,0,0v0H3a.05.05,0,0,0,0,0H3s0,0,0,0A.05.05,0,0,0,3.06,3.32Zm0,.05H3a0,0,0,0,1,0,0H3v0h0v0A0,0,0,0,0,3.05,3.37Z"/><path class="cls-4" d="M3.12,3.21s0,0,0,0,0,0,0,0h0l0,0s0,0,0,0Z"/><path class="cls-12" d="M3.13,3.2h0s-.05,0-.05,0h0s0,0,0,0,0,0,0,0h0s0,0,0,0S3.15,3.2,3.13,3.2Zm0,.06h0v0h.05S3.12,3.25,3.11,3.26Z"/><path class="cls-14" d="M2.8,3.41h0a.2.2,0,0,1,0-.09v0a.08.08,0,0,0,0,0l0-.06H2.8a0,0,0,0,0,0,0h0l0,0h0s0,0,0,0h0s0,0,0,0h0s0,0,0,0,0,0,0,0h0a.06.06,0,0,1,0,0,.07.07,0,0,1,0,.05h0a0,0,0,0,1,0,0s0,0,0,0,0,0,0,0h0s0,0,0,0h0a0,0,0,0,1,0,0h0a0,0,0,0,0,0,0h0S2.8,3.4,2.8,3.41Z"/><path class="cls-14" d="M2.7,3.32a.2.2,0,0,0,0,.09h0a.2.2,0,0,1-.05-.09v0l0,0s0,0,0-.06h.05a.16.16,0,0,1,0,.07l0,0Z"/><path class="cls-14" d="M2.69,3.41h0a.24.24,0,0,1-.06-.09v0a.08.08,0,0,0,0,0l0-.06h0a.18.18,0,0,1,0,.07s0,0,0,0v0A.41.41,0,0,0,2.69,3.41Z"/><path class="cls-14" d="M2.46,3.39h0s0,0,0,0h0a0,0,0,0,1,0,0h0s0,0,0,0,0,0,0,0l0,0h0a.07.07,0,0,1,0-.05.06.06,0,0,1,0,0h0a0,0,0,0,1,0,0,.05.05,0,0,1,0,0h0a0,0,0,0,1,0,0h0a0,0,0,0,1,0,0h0l0,0h0a0,0,0,0,0,0,0h0a.16.16,0,0,1,0,.07s0,0,0,0v0a.2.2,0,0,0,.05.09H2.5s0,0,0,0h0Z"/><path class="cls-15" d="M2.88,3.3s0,0,0,0h0s0,0,0,0,0,0,0,0,0,0,0,0H2.5a0,0,0,0,0,0,0s0,0,0,0h0a0,0,0,0,0,0,0,.06.06,0,0,0,0,0,.07.07,0,0,0,0,.05,0,0,0,0,0,0,0v0s0,0,0,0h.42a.06.06,0,0,0,0,0v0A.43.43,0,0,0,2.88,3.3Zm-.33.11h0s0,0,0,0h0s0,0,0,0h0a0,0,0,0,1,0,0H2.44s0,0,0,0l0,0h0a.07.07,0,0,1,0-.05.06.06,0,0,1,0,0h0s0,0,0,0h0a.05.05,0,0,1,0,0h0a0,0,0,0,1,0,0h0a0,0,0,0,1,0,0h0l0,0h0a0,0,0,0,0,0,0h0s0,0,0,0h0s0,0,0,0v0a.2.2,0,0,0,.05.09Zm.1,0a.24.24,0,0,1-.06-.09v0a.08.08,0,0,0,0,0h0l0-.06h0a.18.18,0,0,1,0,.07h0s0,0,0,0v0a.41.41,0,0,0,0,.09Zm.05,0a.2.2,0,0,1-.05-.09v0h0s0,0,0-.06h.05s0,0,0,0h0a.08.08,0,0,0,0,0v0a.2.2,0,0,0,0,.09Zm.17,0s0,0,0,0,0,0,0,0h0s0,0,0,0h0a0,0,0,0,1,0,0h0a0,0,0,0,0,0,0h0s0,0,0,0h0a.2.2,0,0,1,0-.09v0h0v0H2.8a0,0,0,0,0,0,0h0l0,0h0s0,0,0,0h0s0,0,0,0h0s0,0,0,0,0,0,0,0h0a.07.07,0,0,1,0,.05h0A0,0,0,0,1,2.87,3.38Z"/><polygon class="cls-16" points="1.98 2.7 1.98 2.65 2 2.7 1.98 2.7"/><polygon class="cls-16" points="2.06 2.76 2.1 2.74 2.06 2.78 2.06 2.76"/><polygon class="cls-16" points="1.9 2.78 1.86 2.77 1.91 2.77 1.9 2.78"/><polygon class="cls-16" points="1.94 2.88 1.89 2.87 1.95 2.86 1.94 2.88"/><polygon class="cls-16" points="2.04 2.91 2 2.94 2.04 2.9 2.04 2.91"/><polygon class="cls-16" points="2.13 2.99 2.1 3.01 2.13 2.97 2.13 2.99"/><polygon class="cls-16" points="2.19 2.84 2.2 2.8 2.21 2.85 2.19 2.84"/><polygon class="cls-16" points="2.49 2.88 2.5 2.83 2.51 2.88 2.49 2.88"/><polygon class="cls-16" points="2.6 2.92 2.6 2.87 2.61 2.92 2.6 2.92"/><polygon class="cls-16" points="2.4 3.04 2.38 3.08 2.39 3.03 2.4 3.04"/><polygon class="cls-16" points="2.5 3.09 2.48 3.13 2.49 3.08 2.5 3.09"/><polygon class="cls-16" points="2.6 3.07 2.62 3.12 2.59 3.07 2.6 3.07"/><polygon class="cls-16" points="2.85 3.11 2.87 3.15 2.84 3.11 2.85 3.11"/><polygon class="cls-16" points="2.95 3.09 2.96 3.14 2.94 3.09 2.95 3.09"/><polygon class="cls-16" points="3.02 3.12 3.02 3.16 3 3.11 3.02 3.12"/><polygon class="cls-16" points="3.16 3.13 3.19 3.17 3.15 3.13 3.16 3.13"/><polygon class="cls-16" points="3.2 3.12 3.22 3.16 3.19 3.12 3.2 3.12"/><polygon class="cls-16" points="3.28 3.04 3.32 3.03 3.27 3.06 3.28 3.04"/><polygon class="cls-16" points="3.15 2.96 3.17 2.92 3.17 2.97 3.15 2.96"/><polygon class="cls-16" points="3.06 3.05 3.06 3 3.07 3.05 3.06 3.05"/><polygon class="cls-16" points="2.94 2.95 2.96 2.91 2.95 2.96 2.94 2.95"/><polygon class="cls-16" points="2.8 2.96 2.79 2.91 2.81 2.96 2.8 2.96"/><polygon class="cls-16" points="2.56 2.9 2.57 2.86 2.58 2.91 2.56 2.9"/><polygon class="cls-16" points="2.42 2.91 2.4 2.87 2.44 2.91 2.42 2.91"/><polygon class="cls-16" points="2.31 2.88 2.33 2.85 2.32 2.9 2.31 2.88"/><polygon class="cls-16" points="2.25 3.02 2.21 3.04 2.25 3 2.25 3.02"/><path class="cls-17" d="M3,3.06H3s0,0,0,0,0,0,0,0,0,0,0,0l.05,0s0,0,0-.06h.06s0,0,0,0a.06.06,0,0,1,0,.07s-.06.06-.09.07H3.09a.13.13,0,0,1-.08,0H3s0,0,0,0v0Z"/><path class="cls-17" d="M2.67,3.21v0h0s0,0,0-.07a.1.1,0,0,1,0-.05h0l0,0,0,0h.05s0,0,0,0,0,0,0,0S3,3,3,3H3V3l0,0-.05,0h0s-.06,0-.08,0a.08.08,0,0,0,0,.06v0h-.1Z"/><path class="cls-17" d="M2.7,3a.22.22,0,0,1-.09.07.23.23,0,0,1-.18,0S2.38,3,2.38,3h0V3h0s0,0,0,0,0,0,.06,0a.19.19,0,0,1,.1,0h0l.1,0h0Z"/><path class="cls-17" d="M2.37,3V3h0s0,0,0,0H2.24a.13.13,0,0,1-.1,0l0-.05h0a0,0,0,0,1,0,0,.05.05,0,0,1,0,0h.08a.16.16,0,0,1,.09.05s0,0,0,0Z"/><path class="cls-17" d="M2.05,2.77a.22.22,0,0,1,0,.14h0L2,2.9a.19.19,0,0,1-.11-.11v0H2A.15.15,0,0,1,2.05,2.77Z"/><path class="cls-18" d="M3,3.05s0,0,.07,0,0,0,0,0l0,0a0,0,0,0,1,.05,0h0s0,0,0,.06l-.05,0s0,0,0,0,0,0,0,0,0,0,0,0H3Z"/><path class="cls-18" d="M2.87,3S2.93,3,3,3L3,3H3s0,0,0,0,0,0,0,0,0,0,0,0H2.8S2.84,3,2.87,3Z"/><path class="cls-18" d="M2.8,3h0l0,0,0,0h0a.1.1,0,0,0,0,.05s0,.06,0,.07h0V3.13s0,0,0,0,0,0,0,0l0,0Z"/><path class="cls-18" d="M2.41,2.93s0,0,0,0a0,0,0,0,1,0,0s0,0,0,0h0a.15.15,0,0,1,.08,0s0,0,.06,0h.1V3h0l-.1,0h0a.19.19,0,0,0-.1,0S2.42,2.93,2.41,2.93Z"/><path class="cls-18" d="M2.15,2.88a.05.05,0,0,0,0,0,0,0,0,0,0,0,0v0l0,0,0,0h.08l.08,0,0,.05,0,0h0s0,0,0,0a.16.16,0,0,0-.09-.05Z"/><path class="cls-18" d="M2.09,2.8s0,0,0,.05,0,0,0,0l0,0h0s0,0,0,0h0a.22.22,0,0,0,0-.14.15.15,0,0,0-.09,0H1.9a0,0,0,0,1,0,0H2a.22.22,0,0,1,.12.11Z"/><path class="cls-19" d="M3.28,3s0,0,0,0l0,0H3.16l0,0,0,0,0,0H3A.07.07,0,0,0,3,3H3L3,3h0a.14.14,0,0,0-.11,0H2.57l-.06,0H2.42l0,0s0,0-.06-.06h0a.1.1,0,0,0-.07,0H2.12a.21.21,0,0,0,0-.07h0s0,0,0,0h0A.18.18,0,0,0,2,2.69H2l0,0,0,0s0,0,0,0h0v0a.15.15,0,0,0,0,.07h0l.06,0h.09s0,0,0,0h0a.14.14,0,0,0,.1,0h.14s0,0,0,0h0a0,0,0,0,0,0,0,.11.11,0,0,0,.07,0h.12l.07,0v0a.06.06,0,0,0,0,0v.05h0v0h0s0,0,0,0h0s0,0,0,0,0,0,0,0h0a.08.08,0,0,1,0,0H3l0,0H3l.07,0H3.2a.1.1,0,0,0,.08-.07h0ZM2.09,2.9s0,0,0,0H2l0,0H2l0,0H2l0,0h0v0h0s0,0,0,.05,0,0,0,0l0,0ZM2.37,3s0,0,0,0H2.13l0,0h0v0l0,0,0,0h.12l0,0h0v0h0l0,0V3Zm.24.11H2.43S2.38,3,2.38,3h0V3a0,0,0,0,1,0,0h.09a.15.15,0,0,1,.08,0s0,0,.06,0h.1a0,0,0,0,1,0,0h0A.22.22,0,0,1,2.61,3.08Zm.35,0H2.77v0h-.1v0h0v0s0,0,0,0H2.8s0,0,.07,0S2.93,3,3,3L3,3V3l0,0Zm.31,0H3s0,0,0,0v0h.08l0,0s0,0,0,0h.12s0,0,0,0h0Z"/><path class="cls-19" d="M2.27,3h0a0,0,0,0,1,0,0h0a0,0,0,0,1,0,0h0Z"/><path class="cls-18" d="M2.26,3s0,0,0,0h0a0,0,0,0,1,0,0Z"/><polygon class="cls-16" points="2.24 2.99 2.26 2.99 2.26 2.98 2.24 2.99"/><path class="cls-19" d="M2.19,3h0a0,0,0,0,1,0,0h0S2.19,3,2.19,3Z"/><path class="cls-18" d="M2.18,3s0,0,0,0h0a0,0,0,0,1,0,0Z"/><polygon class="cls-16" points="2.15 2.94 2.17 2.97 2.18 2.96 2.15 2.94"/><path class="cls-19" d="M2.23,3h0Z"/><path class="cls-18" d="M2.23,3h0Z"/><polygon class="cls-16" points="2.22 2.92 2.22 2.94 2.23 2.94 2.22 2.92"/><path class="cls-19" d="M3.17,3.11s0,0,0,0,0,0,0,0h0Z"/><path class="cls-18" d="M3.18,3.11h0Z"/><polygon class="cls-16" points="3.18 3.07 3.17 3.09 3.18 3.1 3.18 3.07"/><path class="cls-19" d="M3,3.08a0,0,0,0,0,0,0s0,0,0,0h0s0,0,0,0H3S3,3.07,3,3.08Z"/><path class="cls-18" d="M3,3.07a0,0,0,0,0,0,0h0s0,0,0,0H3Z"/><polygon class="cls-16" points="3.07 3.05 3.05 3.08 3.04 3.07 3.07 3.05"/><path class="cls-19" d="M3.13,3.09h0s0,0,0,0h0Z"/><path class="cls-18" d="M3.13,3.08h0Z"/><polygon class="cls-16" points="3.11 3.04 3.11 3.07 3.12 3.07 3.11 3.04"/><path class="cls-19" d="M3.18,3s0,0,0,0h0s0,0,0,0h0Z"/><path class="cls-18" d="M3.19,3s0,0,0,0h0s0,0,0,0h0Z"/><polygon class="cls-16" points="3.22 3.02 3.2 3.03 3.2 3.04 3.22 3.02"/><path class="cls-19" d="M3.14,3h0Z"/><path class="cls-18" d="M3.14,3a0,0,0,0,1,0,0h0Z"/><polygon class="cls-16" points="3.15 2.99 3.14 3.01 3.15 3.01 3.15 2.99"/><path class="cls-19" d="M2.2,2.9h0Z"/><path class="cls-18" d="M2.2,2.89h0Z"/><polygon class="cls-16" points="2.19 2.86 2.19 2.89 2.2 2.89 2.19 2.86"/><path class="cls-19" d="M2.32,3h0a0,0,0,0,1,0,0h0s0,0,0,0h0S2.32,2.94,2.32,3Z"/><path class="cls-18" d="M2.32,3h0s0,0,0,0h0Z"/><polygon class="cls-16" points="2.29 2.96 2.31 2.96 2.31 2.95 2.29 2.96"/><path class="cls-19" d="M2.55,3a0,0,0,0,1,0,0h0s0,0,0,0h0Z"/><path class="cls-18" d="M2.54,3a0,0,0,0,1,0,0h0s0,0,0,0h0Z"/><polygon class="cls-16" points="2.49 2.98 2.53 3 2.53 2.98 2.49 2.98"/><path class="cls-19" d="M2.56,3s0,0,0,0h0s0,0,0,0h0Z"/><path class="cls-18" d="M2.56,3a0,0,0,0,1,0,0h0s0,0,0,0h0Z"/><polygon class="cls-16" points="2.53 3.06 2.55 3.06 2.55 3.05 2.53 3.06"/><path class="cls-19" d="M2.51,2.94h0a0,0,0,0,1,0,0h0s0,0,0,0h0Z"/><path class="cls-18" d="M2.5,2.93h0s0,0,0,0Z"/><polygon class="cls-16" points="2.47 2.91 2.48 2.93 2.49 2.93 2.47 2.91"/><path class="cls-19" d="M2.62,3h0a0,0,0,0,1,0,0h0S2.62,3,2.62,3Z"/><path class="cls-18" d="M2.61,3s0,0,0,0h0a0,0,0,0,1,0,0h0Z"/><polygon class="cls-16" points="2.58 3 2.6 3.02 2.6 3.01 2.58 3"/><path class="cls-19" d="M2.46,3a0,0,0,0,1,0,0h0a0,0,0,0,1,0,0h0Z"/><path class="cls-18" d="M2.46,3a0,0,0,0,1,0,0h0a0,0,0,0,1,0,0h0Z"/><polygon class="cls-16" points="2.42 2.97 2.44 2.98 2.44 2.97 2.42 2.97"/><path class="cls-19" d="M2.47,3s0,0,0,0h0s0,0,0,0h0Z"/><path class="cls-18" d="M2.47,3v0h0s0,0,0,0h0Z"/><polygon class="cls-16" points="2.44 3.05 2.46 3.04 2.46 3.04 2.44 3.05"/><path class="cls-19" d="M2.59,3s0,0,0,0h0s0,0,0,0h0Z"/><path class="cls-18" d="M2.59,3s0,0,0,0h0s0,0,0,0h0Z"/><polygon class="cls-16" points="2.56 2.94 2.58 2.96 2.58 2.96 2.56 2.94"/><path class="cls-19" d="M2.17,2.92s0,0,0,0h0s0,0,0,0h0Z"/><path class="cls-18" d="M2.16,2.91s0,0,0,0h0s0,0,0,0Z"/><polygon class="cls-16" points="2.13 2.9 2.15 2.92 2.15 2.91 2.13 2.9"/><path class="cls-19" d="M2,2.76s0,0,0,0H2Z"/><path class="cls-18" d="M2,2.75a0,0,0,0,1,0,0H2Z"/><path class="cls-19" d="M2,2.81s0,0,0,0a0,0,0,0,1,0,0H2Z"/><path class="cls-18" d="M2,2.81H2Z"/><path class="cls-19" d="M2,2.81H2s0,0,0,0H2Z"/><path class="cls-18" d="M2,2.8a0,0,0,0,1,0,0H2s0,0,0,0Z"/><path class="cls-19" d="M2,2.77H2Z"/><path class="cls-18" d="M2,2.76s0,0,0,0H2Z"/><path class="cls-19" d="M2.05,2.81h0Z"/><path class="cls-18" d="M2.05,2.81h0Z"/><path class="cls-19" d="M2.05,2.87H2s0,0,0,0h0Z"/><path class="cls-18" d="M2.05,2.86s0,0,0,0H2s0,0,0,0Z"/><path class="cls-19" d="M2,2.87H2a0,0,0,0,1,0,0H2Z"/><path class="cls-18" d="M2,2.87H2a0,0,0,0,1,0,0H2Z"/><polygon class="cls-16" points="1.93 2.74 1.94 2.76 1.95 2.75 1.93 2.74"/><polygon class="cls-16" points="1.92 2.79 1.93 2.81 1.94 2.81 1.92 2.79"/><polygon class="cls-16" points="1.96 2.8 1.98 2.81 1.99 2.8 1.96 2.8"/><polygon class="cls-16" points="1.99 2.73 1.99 2.75 2 2.75 1.99 2.73"/><polygon class="cls-16" points="2.04 2.78 2.04 2.8 2.05 2.8 2.04 2.78"/><polygon class="cls-16" points="2.04 2.84 2.03 2.86 2.04 2.86 2.04 2.84"/><polygon class="cls-16" points="1.97 2.85 1.98 2.87 1.99 2.86 1.97 2.85"/><path class="cls-19" d="M2.82,3.09s0,0,0,0h0a0,0,0,0,1,0,0h0Z"/><path class="cls-18" d="M2.82,3.09s0,0,0,0h0a0,0,0,0,1,0,0h0Z"/><polygon class="cls-16" points="2.85 3.06 2.82 3.07 2.83 3.08 2.85 3.06"/><path class="cls-19" d="M2.74,3.17h0v0h0l0,0h0Z"/><path class="cls-18" d="M2.75,3.16s0,0,0,0h0l0,0h0Z"/><polygon class="cls-16" points="2.76 3.12 2.73 3.14 2.75 3.15 2.76 3.12"/><path class="cls-19" d="M2.7,3.09h0a0,0,0,0,1,0,0h0l0,0h0Z"/><path class="cls-18" d="M2.71,3.09a0,0,0,0,1,0,0h0l0,0h0Z"/><polygon class="cls-16" points="2.71 3.05 2.7 3.07 2.71 3.08 2.71 3.05"/><path class="cls-19" d="M2.86,3h0a0,0,0,0,1,0,0h0Z"/><path class="cls-18" d="M2.86,3s0,0,0,0h0Z"/><polygon class="cls-16" points="2.87 2.99 2.85 3 2.86 3.01 2.87 2.99"/><path class="cls-19" d="M2.78,3.08h0Z"/><path class="cls-18" d="M2.78,3.08s0,0,0,0h0Z"/><polygon class="cls-16" points="2.76 3.04 2.76 3.07 2.77 3.07 2.76 3.04"/><path class="cls-19" d="M2.88,3.1v0h0Z"/><path class="cls-18" d="M2.89,3.1v0h0Z"/><polygon class="cls-16" points="2.91 3.08 2.89 3.08 2.89 3.09 2.91 3.08"/><path class="cls-19" d="M2.94,3.05a0,0,0,0,1,0,0h0Z"/><path class="cls-18" d="M2.94,3a0,0,0,0,1,0,0h0Z"/><polygon class="cls-16" points="2.95 3 2.94 3.02 2.94 3.03 2.95 3"/><path class="cls-20" d="M2.32,2.76a0,0,0,0,1,0,0,0,0,0,0,1,0,0s0,0,0,0S2.32,2.75,2.32,2.76Z"/><path class="cls-21" d="M2.32,2.86s0,.05,0,.05a.05.05,0,0,1,0-.07s0,0,0,0S2.33,2.83,2.32,2.86Z"/><path class="cls-22" d="M2.33,2.81h0s0,0,0,0h0S2.33,2.8,2.33,2.81Z"/><path class="cls-23" d="M2.28,2.8s0,0,0,0v0h0S2.29,2.79,2.28,2.8Z"/><path class="cls-24" d="M2.31,2.79l0,0v0a0,0,0,0,1,0,0A0,0,0,0,1,2.31,2.79Z"/><path class="cls-25" d="M1.86,2.58v0h0s0,0,0,0S1.85,2.57,1.86,2.58Z"/><path class="cls-26" d="M1.94,2.65a.06.06,0,0,1,0,.08.06.06,0,0,1-.07,0,.05.05,0,0,1,0-.08A.06.06,0,0,1,1.94,2.65Z"/><path class="cls-27" d="M1.91,2.61s0,0,0,0,0,0,0,0,0,0,0,0Z"/><path class="cls-28" d="M1.86,2.63a0,0,0,0,1,0,0h0s0,0,0,0Z"/><path class="cls-29" d="M1.88,2.61s0,0,0,0,0,0,0,0,0,0,0,0Z"/><path class="cls-30" d="M3.36,2.9s0,0,0,0,0,0,0,0,0,0,0,0S3.37,2.89,3.36,2.9Z"/><path class="cls-31" d="M3.31,3s-.06,0-.07,0,0,0,0-.08.06,0,.07,0S3.33,3,3.31,3Z"/><path class="cls-32" d="M3.35,3h0v0a0,0,0,0,1,0,0Z"/><path class="cls-33" d="M3.31,2.92h0a0,0,0,0,1,0,0h0A0,0,0,0,1,3.31,2.92Z"/><path class="cls-34" d="M3.34,2.92h0a0,0,0,0,1,0,0h0S3.35,2.92,3.34,2.92Z"/><path class="cls-35" d="M2.15,1.87a.05.05,0,0,0,0,0h0Z"/><polygon class="cls-36" points="2.07 2.7 2.07 2.69 2.08 2.69 2.07 2.7"/><path class="cls-36" d="M2.13,2.69s0,0,0,0l-.05,0h.06Z"/><polygon class="cls-36" points="2.16 2.63 2.15 2.64 2.15 2.64 2.15 2.63 2.16 2.63"/><path class="cls-36" d="M2.15,2.64h0v0h0s0,0,0,0Z"/><polygon class="cls-36" points="2.13 2.62 2.13 2.61 2.13 2.61 2.13 2.62"/><path class="cls-36" d="M2.15,2.64h0a0,0,0,0,0,0,0h0Z"/><path class="cls-36" d="M2.05,2.66H2.1l0,0h0Z"/><path class="cls-36" d="M2.09,2.61l0,0h0l0,0v0h0Z"/><path class="cls-36" d="M2.05,2.65v0h0l0,0Z"/><path class="cls-36" d="M2,2.59l0,0h0A.43.43,0,0,0,2,2.6Z"/><path class="cls-36" d="M2.06,2.54l0,0s0,0,0,0Z"/><path class="cls-36" d="M2.15,2.48h0Z"/><path class="cls-36" d="M2.14,2.5h0Z"/><path class="cls-36" d="M2.13,2.46v0Z"/><path class="cls-36" d="M2.12,2.46v0l0,0,0,0Z"/><path class="cls-36" d="M2.11,2.4h0Z"/><path class="cls-36" d="M2.08,2.43v0h0l0,0h0l0,0Z"/><path class="cls-36" d="M2.07,2.39v0h0Z"/><path class="cls-36" d="M2.13,2.37h0l0,0h0Z"/><path class="cls-36" d="M2.06,2.36a.14.14,0,0,1,0-.06,0,0,0,0,0,0,0l0,0,0,0h0l0,0Z"/><path class="cls-36" d="M2.14,2.32v0h0Z"/><path class="cls-36" d="M2.08,2.29l0-.06s0,0,0,.06h0Z"/><polygon class="cls-36" points="2.16 2.19 2.16 2.19 2.16 2.19 2.16 2.19"/><path class="cls-36" d="M2.18,2.29s0,0,0,0h0Z"/><path class="cls-36" d="M2.16,2.25l0,0v0h0v0Z"/><path class="cls-36" d="M2.16,2.19h0v.05l0,0Z"/><path class="cls-36" d="M2.21,2.26v0h0l0,0Z"/><polygon class="cls-36" points="2.24 2.14 2.23 2.14 2.24 2.14 2.24 2.14"/><path class="cls-36" d="M2.24,2.17h0Z"/><path class="cls-36" d="M2.27,2.14h0a0,0,0,0,1,0,0Z"/><path class="cls-36" d="M2.26,2.22s0,0,0,0h.07l-.05,0Z"/><path class="cls-36" d="M2.31,2.17l0,0h0v0h0a.05.05,0,0,1,0,0Z"/><path class="cls-36" d="M2.27,2.08h0l0,0h0a0,0,0,0,0,0,0Z"/><path class="cls-36" d="M2.25,2.1v0s0,0,0,0h0l0,0,0,0Z"/><path class="cls-36" d="M2.16,2.05h0Z"/><path class="cls-36" d="M2.25,2.09a.09.09,0,0,0-.06,0h0a.1.1,0,0,1,.07,0Z"/><path class="cls-36" d="M2.13,2h0l0,0H2.1Z"/><path class="cls-36" d="M2.11,2h.05l0,0a0,0,0,0,1,0,0Z"/><path class="cls-36" d="M2.08,2h0V2h0s0,0,0,0Z"/><path class="cls-36" d="M2.08,2a0,0,0,0,1,0,0h0a0,0,0,0,0,0,0h0Z"/><path class="cls-37" d="M2.18,2.64h0l0,0v0Z"/><path class="cls-37" d="M2.12,2.72l0,0h0s0,0,0,0h0v0H2.12Z"/><path class="cls-37" d="M2.11,2.66h0a0,0,0,0,0,0,0H2.08Z"/><path class="cls-37" d="M2.12,2.62v0h0s0,0,0,0l0,0h0Z"/><path class="cls-37" d="M2,2.61a.08.08,0,0,1,0-.06h0l0,0H2Z"/><path class="cls-37" d="M2.06,2.54H2l0,0,0,0h0S2.06,2.53,2.06,2.54Z"/><path class="cls-37" d="M2.15,2.49h0Z"/><path class="cls-37" d="M2.11,2.48h0l0,0h0Z"/><path class="cls-37" d="M2.11,2.41h0v0h0v0h0l0,0h0Z"/><path class="cls-37" d="M2.09,2.38l0,0h0v0h0l0,0Z"/><path class="cls-37" d="M2.11,2.3h0v0l0,0,0,0s0,0,0,0Z"/><path class="cls-37" d="M2.13,2.28a.07.07,0,0,1,0,0l0,0a.09.09,0,0,1,0,0h0Z"/><path class="cls-37" d="M2.17,2.24a.06.06,0,0,1,0,0l0,0a.08.08,0,0,0,0,0h0Z"/><path class="cls-37" d="M2.2,2.19v0h0s0,0,0,0h0Z"/><path class="cls-37" d="M2.24,2.15h0l0,0a0,0,0,0,1,0,0h0Z"/><path class="cls-37" d="M2.16,2h0a.05.05,0,0,1,0,0l.06,0h0a.08.08,0,0,0-.07,0h0l0,0h0Z"/><path class="cls-37" d="M2.1,2s0,0,0,0h0l0,0h0a0,0,0,0,0,0,0h0Z"/><path class="cls-37" d="M2.06,2,2,2h.05a0,0,0,0,0,0,0h0Z"/><path class="cls-37" d="M2.16,1.91l-.07,0h0a0,0,0,0,0,0,0s0,0,0-.06h0s0,0-.08.05H2l0,0v0H2V2H2.1s.07,0,.08-.05ZM2,1.9s0,0,0,0l0,0s0,0,0,0h0s0,0,0,0l0,0S2,1.91,2,1.9Z"/><path class="cls-35" d="M2.33,2.49s0,0,0,0l0,0h0a.1.1,0,0,1,0,0h0Z"/><path class="cls-35" d="M2.33,2.11h0v0h0Z"/><path class="cls-35" d="M2.33,2.11h0v0a0,0,0,0,0,0,0v0h0l0,0Z"/><path class="cls-35" d="M2.3,2.06s0,0,0,0l0,0,0,0,0,0,0,0Z"/><polygon class="cls-38" points="2.31 2.18 2.31 2.18 2.31 2.18 2.31 2.18 2.32 2.18 2.31 2.18"/><path class="cls-39" d="M2.34,2.54h0a.1.1,0,0,0,0,0h0s0,0,0,0Z"/><path class="cls-39" d="M2.3,2.57v0h0l.05,0v0H2.3Z"/><polygon class="cls-38" points="2.31 2.18 2.31 2.18 2.31 2.17 2.31 2.17 2.31 2.17 2.31 2.17 2.32 2.17 2.32 2.18 2.31 2.18 2.31 2.18 2.31 2.18 2.31 2.18 2.31 2.18"/><polygon class="cls-4" points="2.31 2.17 2.31 2.17 2.31 2.17 2.31 2.17 2.31 2.17 2.31 2.17 2.31 2.18 2.31 2.18 2.31 2.18 2.31 2.17 2.31 2.17"/><polygon class="cls-38" points="2.31 2.18 2.31 2.18 2.31 2.18 2.31 2.18 2.31 2.18 2.31 2.18 2.31 2.18 2.31 2.18 2.31 2.18"/><polygon class="cls-38" points="2.31 2.18 2.31 2.18 2.31 2.18 2.31 2.18 2.31 2.18 2.31 2.18 2.31 2.18 2.31 2.18 2.31 2.18 2.31 2.18 2.31 2.18"/><polygon class="cls-4" points="2.31 2.18 2.31 2.18 2.31 2.18 2.31 2.18 2.31 2.18"/><polygon class="cls-4" points="2.31 2.18 2.3 2.17 2.31 2.17 2.31 2.17 2.31 2.17 2.31 2.17 2.31 2.18 2.31 2.18 2.31 2.18 2.31 2.18 2.31 2.18 2.31 2.18 2.31 2.18 2.31 2.18"/><polygon class="cls-38" points="2.31 2.11 2.31 2.11 2.31 2.1 2.31 2.1 2.31 2.11 2.31 2.11"/><path class="cls-4" d="M2.29,2.12h0v0h0Z"/><polygon class="cls-4" points="2.29 2.13 2.29 2.13 2.29 2.13 2.29 2.12 2.29 2.12 2.29 2.12 2.29 2.12 2.3 2.12 2.3 2.13 2.3 2.13 2.29 2.13"/><path class="cls-35" d="M2.28,2.52V2.43a.05.05,0,0,1,0,0s0,0,0,0l0,0Z"/><path class="cls-35" d="M2.27,2.07v0h0s0,0,0,0h0s0,0,0,0l0,0Z"/><path class="cls-35" d="M2.28,2.52l0,0v0a.06.06,0,0,0,0,0h0v0a0,0,0,0,0,0,0Z"/><path class="cls-4" d="M2.27,2.15h0l0,0h0Z"/><rect class="cls-38" x="2.27" y="2.07" width="0.01" height="0.01" transform="translate(-0.8 2.05) rotate(-41.99)"/><path class="cls-4" d="M2.29,2.13h0l0,0h0Z"/><polygon class="cls-4" points="2.27 2.14 2.27 2.14 2.27 2.14 2.27 2.14 2.27 2.14 2.27 2.14 2.27 2.14 2.27 2.14 2.27 2.14"/><path class="cls-4" d="M2.27,2.1v0h0v0a0,0,0,0,1,0,0h0S2.28,2.11,2.27,2.1Z"/><polygon class="cls-4" points="2.27 2.08 2.27 2.08 2.26 2.08 2.27 2.07 2.27 2.07 2.27 2.07 2.27 2.08"/><polygon class="cls-4" points="2.27 2.08 2.27 2.08 2.27 2.08 2.26 2.08 2.26 2.08 2.26 2.08 2.26 2.08 2.26 2.08 2.26 2.08 2.26 2.08 2.27 2.08"/><path class="cls-39" d="M2.25,2.52h0Z"/><path class="cls-35" d="M2.26,2.05l0,0s0,0,0,0V2h0l0,0Z"/><path class="cls-35" d="M2.24,2.48h0s0,0,0,0v0h0a0,0,0,0,0,0,0s0,0,0,0Z"/><path class="cls-38" d="M2.26,2.22l.05,0h0l-.05,0h0Z"/><polygon class="cls-38" points="2.26 2.23 2.26 2.23 2.26 2.23 2.26 2.22 2.26 2.22 2.26 2.23 2.26 2.23 2.26 2.23 2.26 2.23 2.26 2.23 2.26 2.23 2.26 2.23 2.26 2.23 2.26 2.23"/><polygon class="cls-38" points="2.26 2.23 2.26 2.23 2.26 2.23 2.26 2.23 2.26 2.23"/><polygon class="cls-4" points="2.26 2.23 2.26 2.23 2.26 2.23 2.26 2.22 2.26 2.23"/><polygon class="cls-38" points="2.25 2.23 2.25 2.23 2.25 2.23 2.26 2.23 2.26 2.23 2.26 2.23 2.26 2.23 2.26 2.23 2.25 2.23 2.25 2.23"/><polygon class="cls-38" points="2.25 2.23 2.25 2.23 2.25 2.23 2.25 2.23 2.25 2.23 2.26 2.23 2.26 2.23 2.26 2.23 2.26 2.23 2.25 2.23"/><polygon class="cls-38" points="2.25 2.23 2.25 2.23 2.25 2.23 2.25 2.23"/><polygon class="cls-4" points="2.25 2.23 2.25 2.23 2.25 2.23 2.26 2.23 2.26 2.23 2.25 2.23 2.25 2.23 2.25 2.23"/><path class="cls-4" d="M2.25,2.12h0l0,0h0Z"/><path class="cls-4" d="M2.26,2.08v0h0Z"/><polygon class="cls-38" points="2.25 2.1 2.25 2.1 2.25 2.1 2.25 2.1 2.25 2.1 2.25 2.09 2.25 2.1 2.25 2.1 2.25 2.1 2.25 2.1 2.25 2.1"/><polygon class="cls-38" points="2.25 2.12 2.25 2.12 2.25 2.12 2.25 2.11 2.25 2.11 2.25 2.11 2.25 2.12 2.25 2.12 2.25 2.12"/><path class="cls-39" d="M2.25,2.52h0l0,0h0l0,0h0Z"/><path class="cls-38" d="M2.25,2.11h0Z"/><path class="cls-35" d="M2.23,2.48v0a0,0,0,0,0,0,0h0v0Z"/><path class="cls-4" d="M2.25,2.17h0a0,0,0,0,0,0,0h0Z"/><path class="cls-4" d="M2.25,2.22s0,0,0,0h0s0,0,0,0Z"/><path class="cls-35" d="M2.24,2l0,0s0,0,0,0h0V2Z"/><path class="cls-38" d="M2.24,2.13h0a0,0,0,0,0,0,0h0Z"/><path class="cls-4" d="M2.24,2.14h0Z"/><polygon class="cls-4" points="2.24 2.14 2.24 2.14 2.24 2.14 2.24 2.14 2.24 2.14 2.24 2.14 2.24 2.14"/><polygon class="cls-4" points="2.24 2.18 2.24 2.18 2.24 2.17 2.24 2.17 2.24 2.17 2.24 2.17 2.24 2.17 2.24 2.17 2.24 2.18"/><path class="cls-4" d="M2.24,2.16h0Z"/><polygon class="cls-4" points="2.24 2.14 2.24 2.14 2.24 2.14 2.24 2.14 2.24 2.15 2.24 2.15 2.24 2.15 2.24 2.15 2.24 2.15 2.24 2.15 2.24 2.14 2.24 2.14"/><polygon class="cls-38" points="2.24 2.14 2.24 2.14 2.24 2.13 2.24 2.13 2.24 2.13 2.24 2.13 2.24 2.14 2.24 2.14"/><polygon class="cls-4" points="2.24 2.15 2.23 2.15 2.23 2.15 2.23 2.14 2.24 2.14 2.24 2.14 2.24 2.15 2.24 2.15"/><polygon class="cls-38" points="2.23 2.14 2.23 2.14 2.24 2.13 2.24 2.13 2.24 2.14 2.23 2.14 2.23 2.14"/><polygon class="cls-38" points="2.23 2.14 2.23 2.14 2.23 2.14 2.23 2.14 2.23 2.14 2.23 2.15 2.23 2.15 2.23 2.15 2.23 2.14"/><path class="cls-39" d="M2.19,2.49l0,0h0l0,0h0Z"/><path class="cls-35" d="M2.22,2.46h0Z"/><path class="cls-35" d="M2.22,2l0,0h0Z"/><path class="cls-38" d="M2.21,2.26l0,0h0l0,0h0Z"/><polygon class="cls-38" points="2.21 2.26 2.21 2.26 2.21 2.26 2.21 2.26 2.21 2.26 2.22 2.26 2.22 2.26 2.22 2.26 2.22 2.26 2.21 2.26 2.21 2.26 2.21 2.26"/><polygon class="cls-38" points="2.21 2.26 2.21 2.26 2.21 2.26 2.22 2.26 2.21 2.27 2.21 2.26 2.21 2.26"/><path class="cls-4" d="M2.2,2.17Z"/><polygon class="cls-4" points="2.21 2.26 2.21 2.26 2.21 2.26 2.21 2.26 2.21 2.26 2.21 2.26"/><polygon class="cls-38" points="2.21 2.26 2.21 2.26 2.21 2.26 2.21 2.26"/><polygon class="cls-38" points="2.21 2.27 2.21 2.26 2.21 2.26 2.21 2.26 2.21 2.26 2.21 2.26 2.21 2.26 2.21 2.27 2.21 2.27 2.21 2.27 2.21 2.27 2.21 2.27 2.21 2.27"/><polygon class="cls-4" points="2.21 2.26 2.21 2.26 2.21 2.26 2.21 2.26 2.21 2.26 2.21 2.26"/><polygon class="cls-4" points="2.21 2.26 2.21 2.26 2.21 2.26 2.21 2.26 2.21 2.26 2.21 2.26 2.21 2.26 2.21 2.26 2.21 2.26 2.21 2.26"/><path class="cls-4" d="M2.21,2.26a.08.08,0,0,1,0,0h0v0Z"/><path class="cls-4" d="M2.2,2.22h0Z"/><polygon class="cls-4" points="2.2 2.16 2.2 2.16 2.2 2.17 2.2 2.16 2.2 2.16"/><path class="cls-38" d="M2.2,2.16h0l0,0h0Z"/><polygon class="cls-4" points="2.2 2.17 2.2 2.17 2.2 2.17 2.2 2.17 2.2 2.17 2.2 2.17 2.2 2.17 2.2 2.16 2.2 2.17 2.2 2.17"/><polygon class="cls-38" points="2.2 2.63 2.2 2.63 2.2 2.63 2.2 2.63 2.2 2.63 2.2 2.63 2.2 2.63 2.2 2.63 2.2 2.63 2.2 2.63 2.2 2.63"/><path class="cls-4" d="M2.2,2.22V2.17h0v.05Z"/><polygon class="cls-38" points="2.2 2.17 2.2 2.16 2.2 2.16 2.2 2.16 2.2 2.16 2.2 2.17 2.2 2.17 2.2 2.17 2.2 2.17"/><polygon class="cls-38" points="2.2 2.16 2.2 2.16 2.2 2.16 2.2 2.16 2.2 2.16 2.2 2.16 2.2 2.16 2.2 2.16 2.2 2.16 2.2 2.16 2.2 2.16 2.2 2.16 2.2 2.16"/><polygon class="cls-4" points="2.2 2.22 2.2 2.21 2.2 2.22 2.2 2.22 2.2 2.22 2.2 2.22 2.2 2.22 2.2 2.22 2.2 2.22"/><polygon class="cls-4" points="2.2 2.17 2.2 2.17 2.2 2.17 2.2 2.17 2.2 2.17 2.2 2.17"/><polygon class="cls-38" points="2.2 2.16 2.2 2.16 2.2 2.16 2.2 2.16 2.2 2.16 2.2 2.16 2.2 2.16"/><path class="cls-35" d="M2.2,2h0Z"/><path class="cls-35" d="M2.19,2.42h0v0Z"/><polygon class="cls-38" points="2.2 2.17 2.19 2.16 2.2 2.16 2.2 2.16 2.2 2.16 2.2 2.16 2.2 2.16 2.2 2.17 2.2 2.17 2.2 2.17 2.2 2.17 2.2 2.17 2.2 2.17"/><path class="cls-4" d="M2.2,2.63s0,0,0,0h0l0,0Z"/><path class="cls-39" d="M2.18,2.71v0s0,0,0,0a.17.17,0,0,0,.1-.06h.09v0a.14.14,0,0,1-.07.1l-.08,0H2.18Z"/><path class="cls-38" d="M2.19,2.06h0a.09.09,0,0,1,.06,0h0a.07.07,0,0,0-.06,0Z"/><polygon class="cls-38" points="2.19 2.05 2.18 2.05 2.19 2.05 2.19 2.05 2.19 2.05 2.19 2.06 2.19 2.06 2.19 2.05"/><path class="cls-35" d="M2.18,2h0Z"/><path class="cls-4" d="M2.18,2h0a.08.08,0,0,1,.07,0h0a.1.1,0,0,0-.07,0Z"/><rect class="cls-4" x="2.18" y="2.04" height="0.01" transform="translate(-0.8 1.79) rotate(-38.31)"/><polygon class="cls-38" points="2.18 2.72 2.18 2.72 2.18 2.72 2.18 2.71 2.18 2.71 2.18 2.72 2.18 2.72 2.18 2.72 2.18 2.72"/><path class="cls-4" d="M2.18,2.68h0v0h0Z"/><polygon class="cls-4" points="2.18 2.66 2.18 2.67 2.18 2.66 2.17 2.66 2.18 2.66 2.18 2.66 2.18 2.66 2.18 2.66 2.18 2.66"/><polygon class="cls-38" points="2.17 2.3 2.17 2.3 2.18 2.29 2.18 2.29 2.18 2.29 2.18 2.29 2.18 2.3 2.18 2.3 2.18 2.3 2.18 2.3 2.17 2.3"/><polygon class="cls-4" points="2.17 2.04 2.17 2.04 2.18 2.04 2.18 2.04 2.18 2.04 2.18 2.04 2.18 2.04 2.18 2.04 2.17 2.04"/><polygon class="cls-38" points="2.17 2.3 2.17 2.3 2.17 2.3 2.17 2.3 2.17 2.3 2.18 2.3 2.18 2.3 2.17 2.3"/><path class="cls-38" d="M2.17,2.63Z"/><polygon class="cls-38" points="2.17 2.3 2.17 2.3 2.17 2.3 2.18 2.3 2.17 2.3 2.17 2.3 2.17 2.3"/><polygon class="cls-40" points="2.17 2.3 2.17 2.3 2.17 2.3 2.17 2.3"/><path class="cls-4" d="M2.17,2.64h0v0h0v0Z"/><rect class="cls-38" x="2.17" y="2.63" transform="translate(-0.91 4.1) rotate(-75.96)"/><path class="cls-4" d="M2.21,2.26h0Z"/><polygon class="cls-38" points="2.17 2.63 2.17 2.63 2.17 2.63 2.17 2.63 2.17 2.63 2.17 2.63 2.17 2.63 2.17 2.63 2.17 2.63"/><path class="cls-4" d="M2.17,2.3a.09.09,0,0,0,0,0h0s0,0,0,0h0Z"/><path class="cls-39" d="M2.16,2.48h0l0,0h0l0,0h0Z"/><polygon class="cls-38" points="2.17 2.63 2.16 2.63 2.16 2.63 2.17 2.63 2.17 2.63 2.17 2.63 2.17 2.63 2.17 2.63 2.17 2.63 2.17 2.63 2.17 2.63"/><path class="cls-38" d="M2.35,2.09h0v0s0,0,0,0h0s0,0,0,0H2.22l0,0h0v0h0V2h0l0,0h0l0,0h0v0a0,0,0,0,0,0,0v0h0l0,0h0a.05.05,0,0,1,0,0h0l0-.06h0ZM2.17,2h0Zm0,0h0Zm0,0h0V2Zm0,0h0l0,0Zm.06,0h0a0,0,0,0,0,0,0h0l0,0s0,0,0,0h0Zm0,.07,0,0,0,0,0,0s0,0,0,0h0s0,0,0,0Zm0,0h0v0Z"/><polygon class="cls-4" points="2.17 2.25 2.17 2.25 2.16 2.25 2.16 2.25 2.16 2.25 2.17 2.25 2.17 2.25 2.17 2.25 2.17 2.25 2.17 2.25 2.17 2.25"/><polygon class="cls-38" points="2.16 1.98 2.16 1.97 2.16 1.97 2.16 1.97 2.17 1.97 2.17 1.98 2.17 1.98 2.16 1.98 2.16 1.98 2.16 1.98"/><polygon class="cls-38" points="2.16 2.49 2.16 2.49 2.16 2.49 2.17 2.49 2.17 2.49 2.17 2.49 2.17 2.49 2.17 2.49 2.16 2.49 2.16 2.49"/><path class="cls-4" d="M2.16,2.05Z"/><path class="cls-4" d="M2.2,2.22l0,0h0l0,0Z"/><polygon class="cls-4" points="2.16 2.19 2.16 2.19 2.16 2.19 2.16 2.19 2.16 2.2 2.16 2.2 2.16 2.19"/><polygon class="cls-38" points="2.16 2.19 2.16 2.19 2.16 2.19 2.16 2.19 2.16 2.19 2.16 2.19 2.16 2.19 2.16 2.19 2.16 2.19 2.16 2.19"/><path class="cls-38" d="M2.16,2.19h0l0,0h0Z"/><path class="cls-4" d="M2.16,2.24v0h0a.06.06,0,0,0,0,0h0Z"/><path class="cls-39" d="M2.17,2.3s0,0,0,0h0A0,0,0,0,0,2.17,2.3Z"/><polygon class="cls-4" points="2.16 2.2 2.16 2.2 2.16 2.19 2.16 2.2 2.16 2.2 2.16 2.2 2.16 2.2 2.16 2.2 2.16 2.2"/><polygon class="cls-4" points="2.16 2.2 2.15 2.2 2.15 2.19 2.16 2.19 2.16 2.19 2.16 2.2 2.16 2.2"/><polygon class="cls-38" points="2.15 2.19 2.16 2.19 2.16 2.19 2.16 2.19 2.16 2.19 2.15 2.19 2.15 2.19"/><path class="cls-38" d="M2.16,2.05Z"/><polygon class="cls-38" points="2.16 2.05 2.16 2.05 2.16 2.05 2.16 2.05 2.16 2.05 2.15 2.05 2.16 2.05 2.16 2.05 2.16 2.05"/><path class="cls-38" d="M2.17,2.3a0,0,0,0,1,0,0h0l0,0h0l0,0h0s0,0,0,0h0S2.17,2.31,2.17,2.3Z"/><polygon class="cls-38" points="2.15 2.47 2.15 2.47 2.16 2.47 2.16 2.47 2.16 2.48 2.15 2.48 2.15 2.48 2.15 2.48 2.15 2.48 2.15 2.47"/><path class="cls-38" d="M2.15,2.62h0Z"/><polygon class="cls-38" points="2.15 2.19 2.15 2.19 2.15 2.19 2.16 2.19 2.15 2.19 2.15 2.2 2.15 2.19 2.15 2.19 2.15 2.19"/><polygon class="cls-4" points="2.15 2.49 2.15 2.48 2.15 2.48 2.15 2.48 2.15 2.48 2.15 2.48 2.15 2.48 2.15 2.49 2.15 2.49 2.15 2.49"/><path class="cls-4" d="M2.15,2.64h0Z"/><path class="cls-38" d="M2.15,2.47h0Z"/><polygon class="cls-40" points="2.15 2.46 2.15 2.46 2.15 2.46 2.15 2.46"/><polygon class="cls-38" points="2.15 2.63 2.15 2.62 2.15 2.63 2.15 2.63 2.15 2.63 2.15 2.63 2.15 2.63 2.15 2.63 2.15 2.63 2.15 2.63"/><path class="cls-4" d="M2.16,2.49h0Z"/><polygon class="cls-38" points="2.15 2.46 2.15 2.46 2.15 2.46 2.15 2.46 2.15 2.46 2.15 2.46 2.15 2.46 2.15 2.46 2.15 2.46 2.15 2.46 2.15 2.46"/><path class="cls-4" d="M2.15,2.64h0Z"/><polygon class="cls-4" points="2.15 2.65 2.15 2.64 2.15 2.64 2.15 2.64 2.15 2.64 2.15 2.64 2.15 2.64 2.15 2.64 2.15 2.64 2.15 2.64 2.15 2.64 2.15 2.65 2.15 2.65 2.15 2.65"/><polygon class="cls-4" points="2.14 2.5 2.15 2.49 2.15 2.49 2.15 2.49 2.15 2.49 2.15 2.5 2.14 2.5 2.14 2.5 2.14 2.5"/><polygon class="cls-4" points="2.15 2.49 2.15 2.49 2.15 2.49 2.15 2.49 2.15 2.49 2.15 2.49 2.15 2.49 2.15 2.49 2.15 2.49 2.15 2.49"/><path class="cls-39" d="M2.14,2.34h0v0h0S2.14,2.35,2.14,2.34Z"/><polygon class="cls-38" points="2.14 2.33 2.14 2.33 2.14 2.33 2.14 2.32 2.15 2.33 2.15 2.33 2.15 2.33 2.15 2.33 2.14 2.33 2.14 2.33"/><path class="cls-39" d="M2.19,2.46h0v0h0v0Z"/><polygon class="cls-38" points="2.15 2.5 2.15 2.5 2.14 2.5 2.14 2.5 2.14 2.5 2.14 2.5 2.14 2.5 2.14 2.5 2.14 2.5 2.14 2.5 2.15 2.5"/><polygon class="cls-4" points="2.14 2.33 2.14 2.33 2.14 2.33 2.14 2.33 2.14 2.33 2.14 2.33 2.14 2.32 2.14 2.32 2.14 2.32 2.14 2.33 2.14 2.33"/><polygon class="cls-4" points="2.14 2.32 2.14 2.32 2.14 2.33 2.14 2.32 2.14 2.32 2.14 2.32 2.14 2.32 2.14 2.32 2.14 2.32 2.14 2.32"/><path class="cls-4" d="M2.16,2.67h0s0,0,0,0h0Z"/><path class="cls-4" d="M2.14,2.68h0a0,0,0,0,1,0,0h0S2.14,2.67,2.14,2.68Z"/><polygon class="cls-38" points="2.14 2.44 2.14 2.44 2.14 2.44 2.14 2.44 2.14 2.44 2.14 2.44 2.14 2.44"/><path class="cls-38" d="M2.15,2.63h0Z"/><path class="cls-39" d="M2.13,2.37h0v0h0v0h0Z"/><path class="cls-39" d="M2.14,2.42h0v0Z"/><path class="cls-4" d="M2.13,2l0,0h0l0,0Z"/><polygon class="cls-4" points="2.14 2.69 2.13 2.69 2.13 2.69 2.13 2.68 2.13 2.68 2.13 2.68 2.14 2.68 2.14 2.68 2.14 2.69 2.14 2.69 2.14 2.69 2.14 2.69"/><rect class="cls-38" x="2.13" y="2.61" transform="translate(-1.21 2.2) rotate(-43.67)"/><path class="cls-4" d="M2.14,2h0l0,0h0Z"/><polygon class="cls-4" points="2.13 2.01 2.13 2.01 2.13 2.01 2.13 2.01 2.13 2.01 2.13 2.01 2.13 2.01 2.13 2.02 2.13 2.01"/><path class="cls-4" d="M2.14,2.32v0h0v0Z"/><path class="cls-39" d="M2.13,2.4h0a0,0,0,0,0,0,0H2.13Z"/><polygon class="cls-38" points="2.13 2.42 2.13 2.42 2.13 2.42 2.13 2.42 2.13 2.42 2.13 2.42 2.13 2.42 2.13 2.42 2.13 2.42 2.13 2.42"/><path class="cls-4" d="M2.13,2.3Z"/><path class="cls-4" d="M2.13,2.46h0v0h0v0Z"/><path class="cls-38" d="M2.39,2.52s0,0,0,0h0l0,0H2.19l0,0a0,0,0,0,1,0,0h0s0,0,0,0h0v0h0s0,0,0,0h0v0h0v0h0v0h0v0h0v0h0v0h0v0h0v0h0l0,0h0l0,0h0l0,0H2.3s0,0,0,0v0h0l0,0h.16v0h0v0H2.22l0,0h.14l0,0h0s0,0,0-.05v0h0Zm-.21-.1h0a0,0,0,0,0,0,0Zm.08,0h0a0,0,0,0,0,0,0s0,0,0,0l0,0h0a0,0,0,0,0,0,0Zm0,0h0v0l0,0v0A0,0,0,0,0,2.23,2.44Zm0,0v0h0Zm0,0h0Zm0,0h0l0,0h0l0,0Zm.07,0h0l0,0h0l0,0h0Zm0,0h0Zm0,0,0,0v0a.06.06,0,0,0,0,0h0v0a0,0,0,0,0,0,0Zm0,0V2.43a.05.05,0,0,1,0,0s0,0,0,0l0,0Zm0,0,0,0s0,0,0,0l0,0h0a.1.1,0,0,1,0,0Zm0,0h0a.1.1,0,0,0,0,0h0s0,0,0,0l-.05,0h0Zm0,0h0v0h0l.05,0v0Z"/><path class="cls-4" d="M2.13,2.46Z"/><polygon class="cls-38" points="2.13 2.61 2.13 2.61 2.13 2.6 2.13 2.6 2.14 2.61 2.14 2.61 2.13 2.61"/><polygon class="cls-38" points="2.13 2.37 2.13 2.37 2.13 2.37 2.13 2.37 2.13 2.37 2.13 2.37"/><polygon class="cls-38" points="2.13 2.37 2.13 2.37 2.13 2.37 2.13 2.37 2.13 2.37 2.13 2.37 2.13 2.37 2.13 2.37 2.13 2.37 2.13 2.37 2.13 2.37"/><polygon class="cls-38" points="2.13 2.37 2.13 2.37 2.13 2.37 2.13 2.37 2.13 2.37"/><polygon class="cls-4" points="2.13 2.3 2.13 2.3 2.13 2.3 2.13 2.3 2.13 2.3 2.13 2.3 2.13 2.3 2.13 2.3 2.13 2.3"/><polygon class="cls-38" points="2.13 2.37 2.13 2.38 2.13 2.38 2.13 2.37 2.13 2.37 2.13 2.37 2.13 2.37 2.13 2.37 2.13 2.37 2.13 2.37 2.13 2.37 2.13 2.37"/><path class="cls-4" d="M2.12,2.72s0,0,0,0h0l0,0Z"/><path class="cls-38" d="M2.14,2.5h0Z"/><polygon class="cls-4" points="2.13 2.46 2.13 2.46 2.13 2.46 2.13 2.46 2.13 2.46 2.13 2.46 2.13 2.46 2.13 2.46 2.13 2.46"/><path class="cls-4" d="M2.14,2.62h0Z"/><polygon class="cls-38" points="2.13 2.6 2.13 2.6 2.13 2.6 2.13 2.6 2.13 2.6 2.13 2.6 2.13 2.61 2.13 2.6 2.13 2.6 2.13 2.6"/><path class="cls-38" d="M2.14,2.73h0Z"/><path class="cls-4" d="M2.13,2.62h0v0h0Z"/><path class="cls-4" d="M2.12,2.23h0l0,0h0Z"/><path class="cls-4" d="M2.11,2.35l0,0h0l0,0Z"/><polygon class="cls-4" points="2.12 2.62 2.12 2.62 2.12 2.62 2.12 2.62 2.13 2.62 2.13 2.62 2.13 2.62 2.12 2.62 2.12 2.62"/><polygon class="cls-38" points="2.12 2.73 2.12 2.72 2.12 2.72 2.12 2.72 2.12 2.72 2.12 2.72 2.12 2.73 2.12 2.73 2.12 2.73"/><path class="cls-4" d="M2.13,2.49h0Z"/><polygon class="cls-38" points="2.12 2.23 2.12 2.23 2.12 2.23 2.12 2.23 2.12 2.23 2.12 2.23"/><polygon class="cls-4" points="2.12 2.23 2.12 2.23 2.12 2.23 2.12 2.23 2.12 2.23 2.12 2.23"/><path class="cls-4" d="M2.11,2.48v0h0l0,0Z"/><path class="cls-38" d="M2.13,2.6l0,0h0s0,0,0,0Z"/><polygon class="cls-38" points="2.11 2.23 2.11 2.23 2.11 2.23 2.11 2.23 2.12 2.23 2.12 2.23 2.12 2.23 2.12 2.23 2.12 2.23 2.12 2.23 2.12 2.23 2.12 2.23 2.12 2.23 2.11 2.23 2.11 2.23 2.11 2.23 2.11 2.23 2.11 2.23 2.11 2.23 2.11 2.23 2.11 2.23 2.11 2.23"/><path class="cls-4" d="M2.11,2.36Z"/><path class="cls-4" d="M2.12,2.29s0,0,0-.06h0a.07.07,0,0,0,0,0v0h0Z"/><path class="cls-38" d="M2.12,2.23h0l0,0,0,0h0v0Z"/><polygon class="cls-38" points="2.12 2.23 2.11 2.23 2.11 2.23 2.11 2.23 2.12 2.23 2.12 2.23 2.12 2.23"/><path class="cls-38" d="M2.11,2.49h0Z"/><polygon class="cls-38" points="2.11 2.23 2.11 2.23 2.11 2.23 2.12 2.23 2.11 2.23 2.11 2.23 2.11 2.23"/><path class="cls-38" d="M2.11,2h0s0,0,0,0H2.11Z"/><polygon class="cls-38" points="2.11 2.23 2.11 2.23 2.11 2.23 2.11 2.23 2.11 2.23 2.11 2.23"/><rect class="cls-4" x="2.11" y="2.35" transform="translate(-1.05 2.18) rotate(-45)"/><polygon class="cls-38" points="2.11 2.57 2.11 2.57 2.11 2.57 2.11 2.57 2.11 2.57 2.11 2.58 2.11 2.57 2.11 2.57 2.11 2.57"/><path class="cls-4" d="M2.15,2.65h0Z"/><polygon class="cls-38" points="2.11 2.48 2.11 2.48 2.11 2.48 2.11 2.48 2.11 2.48 2.11 2.48 2.11 2.48 2.11 2.48"/><polygon class="cls-38" points="2.11 1.97 2.11 1.97 2.11 1.97 2.11 1.97 2.11 1.97 2.11 1.97 2.11 1.98 2.11 1.98 2.11 1.98 2.11 1.98 2.11 1.97 2.11 1.97"/><path class="cls-4" d="M2.11,2.4l0,0h0Z"/><path class="cls-4" d="M2.11,2.4h0v0h0Z"/><path class="cls-4" d="M2.11,2.65h0v0h0a0,0,0,0,1,0,0Z"/><polygon class="cls-38" points="2.11 1.97 2.11 1.97 2.11 1.97 2.11 1.97 2.11 1.97 2.11 1.97 2.11 1.97 2.11 1.97 2.11 1.97 2.11 1.97"/><polygon class="cls-4" points="2.11 2.4 2.11 2.4 2.11 2.4 2.11 2.41 2.1 2.4 2.1 2.4 2.1 2.4 2.11 2.4 2.11 2.4"/><polygon class="cls-4" points="2.11 1.97 2.11 1.98 2.11 1.98 2.11 1.98 2.11 1.98 2.11 1.98 2.11 1.97 2.11 1.97 2.11 1.97 2.11 1.97"/><path class="cls-4" d="M2.11,2h0a0,0,0,0,0,0,0h0a0,0,0,0,1,0,0h0Z"/><rect class="cls-38" x="2.1" y="1.97" transform="translate(-0.77 1.75) rotate(-38.66)"/><path class="cls-38" d="M2.11,2.55v0h0Z"/><polygon class="cls-4" points="2.11 2.65 2.11 2.65 2.11 2.66 2.11 2.66 2.11 2.66 2.1 2.66 2.11 2.65 2.11 2.65 2.11 2.65"/><polygon class="cls-38" points="2.1 2.56 2.1 2.56 2.1 2.55 2.11 2.55 2.11 2.56 2.11 2.56 2.11 2.56 2.1 2.56 2.1 2.56 2.1 2.56"/><polygon class="cls-4" points="2.1 1.98 2.1 1.97 2.1 1.97 2.11 1.97 2.11 1.97 2.11 1.97 2.1 1.98 2.1 1.98"/><polygon class="cls-4" points="2.11 1.98 2.1 1.98 2.1 1.98 2.1 1.98 2.1 1.98 2.11 1.97 2.11 1.98 2.11 1.98 2.11 1.98"/><path class="cls-38" d="M2.13,2.05h0Z"/><path class="cls-4" d="M2.13,2l0,0h0l0,0h0Z"/><polygon class="cls-38" points="2.1 2.04 2.1 2.05 2.1 2.04 2.1 2.04"/><path class="cls-41" d="M2.11,1.83h0s0,0,0,0l0,0s0,0,0,0,0,0,.05,0l0,0S2.12,1.84,2.11,1.83Zm0,0h0s0,0,0,0Z"/><rect class="cls-38" x="2.1" y="2.05" transform="translate(-0.53 0.75) rotate(-17.96)"/><polygon class="cls-4" points="2.1 2.04 2.1 2.04 2.1 2.04 2.1 2.04 2.1 2.04 2.1 2.04 2.1 2.04 2.1 2.04 2.1 2.04"/><polygon class="cls-38" points="2.1 2.05 2.1 2.05 2.1 2.05 2.1 2.05 2.1 2.05 2.1 2.05"/><polygon class="cls-38" points="2.1 2.05 2.1 2.04 2.1 2.04 2.1 2.04 2.1 2.04 2.1 2.04 2.1 2.04 2.1 2.05 2.1 2.05 2.1 2.05 2.1 2.05 2.1 2.05 2.1 2.05 2.1 2.05"/><polygon class="cls-38" points="2.1 2.05 2.1 2.05 2.1 2.05 2.1 2.05 2.1 2.05 2.1 2.05 2.1 2.04 2.1 2.05"/><polygon class="cls-38" points="2.1 2.04 2.1 2.04 2.1 2.04 2.1 2.04"/><path class="cls-38" d="M2.1,2a0,0,0,0,1,0,0h0a0,0,0,0,0,0,0h0Z"/><polygon class="cls-38" points="2.09 1.96 2.09 1.96 2.09 1.96 2.1 1.96 2.1 1.96 2.09 1.96 2.09 1.96"/><polygon class="cls-38" points="2.09 1.96 2.09 1.96 2.1 1.96 2.1 1.96 2.09 1.96 2.09 1.96 2.09 1.96 2.09 1.96 2.09 1.96"/><polygon class="cls-38" points="2.09 1.96 2.1 1.96 2.1 1.96 2.1 1.96 2.1 1.96 2.09 1.96 2.09 1.96 2.09 1.96 2.09 1.96"/><path class="cls-42" d="M2.11,1.83h0S2.11,1.82,2.11,1.83Z"/><path class="cls-4" d="M2.09,2.6l0,0h0l0,0h0Z"/><path class="cls-4" d="M2.11,2.69h0Z"/><path class="cls-4" d="M2.11,2.36h0l0,0h0Z"/><path class="cls-4" d="M2.12,2.62h0Z"/><polygon class="cls-4" points="2.09 1.96 2.09 1.96 2.09 1.96 2.09 1.96 2.09 1.96"/><path class="cls-4" d="M2.11,2.3h0Z"/><polygon class="cls-4" points="2.09 1.96 2.09 1.96 2.08 1.96 2.08 1.96 2.08 1.96 2.09 1.96"/><polygon class="cls-4" points="2.09 1.96 2.09 1.96 2.09 1.96 2.08 1.96 2.08 1.96 2.08 1.97 2.08 1.96 2.08 1.96 2.08 1.96 2.08 1.96 2.08 1.96 2.09 1.96 2.09 1.96 2.09 1.96 2.09 1.96"/><path class="cls-4" d="M2.08,2.69l0,0h0l0,0Z"/><path class="cls-4" d="M2.1,2.4l0,0h0l0,0h0Z"/><polygon class="cls-4" points="2.08 2.62 2.08 2.62 2.08 2.62 2.08 2.62 2.09 2.62 2.08 2.62 2.08 2.62 2.08 2.62 2.08 2.62"/><path class="cls-4" d="M2.13,2.46h0l0,0h0l0,0h0Z"/><polygon class="cls-4" points="2.08 2.38 2.08 2.38 2.08 2.38 2.08 2.38 2.08 2.38 2.08 2.38 2.08 2.38 2.08 2.38 2.08 2.38"/><path class="cls-4" d="M2.08,2h0l0,0Z"/><path class="cls-4" d="M2.08,2h0s0,0,0,0h0s0,0,0,0Z"/><path class="cls-38" d="M2.1,2.55s0,0,0,0h0l0,0h0Z"/><path class="cls-4" d="M2.11,2.35h0l0,0a0,0,0,0,1,0,0h0s0,0,0,0l0,0Z"/><polygon class="cls-4" points="2.08 2 2.08 2 2.08 2 2.08 2 2.08 2 2.08 2 2.08 2 2.08 2.01 2.08 2"/><polygon class="cls-38" points="2.08 2.29 2.08 2.29 2.08 2.29 2.08 2.29 2.08 2.29 2.08 2.29"/><polygon class="cls-4" points="2.08 2.29 2.08 2.29 2.08 2.29 2.08 2.3 2.08 2.3 2.08 2.3 2.08 2.29"/><rect class="cls-38" x="2.07" y="2.51" transform="translate(-1.18 2.67) rotate(-53.13)"/><polygon class="cls-38" points="2.08 2.43 2.08 2.43 2.08 2.43 2.08 2.43 2.08 2.44 2.08 2.43"/><polygon class="cls-4" points="2.08 2.43 2.08 2.43 2.08 2.43 2.08 2.43 2.08 2.43 2.08 2.43 2.08 2.43"/><path class="cls-4" d="M2.08,2.43h0l0,0h0Z"/><polygon class="cls-38" points="2.08 2.43 2.08 2.43 2.08 2.43 2.08 2.43 2.08 2.43"/><polygon class="cls-4" points="2.07 2.7 2.07 2.7 2.07 2.7 2.08 2.69 2.08 2.69 2.08 2.69 2.08 2.69 2.07 2.7"/><polygon class="cls-4" points="2.08 2.69 2.08 2.69 2.08 2.69 2.08 2.69 2.08 2.69 2.08 2.69 2.08 2.69 2.08 2.69 2.08 2.69 2.08 2.69"/><path class="cls-38" d="M2.08,2.29s0,0,0-.06h0l0,.06Z"/><polygon class="cls-38" points="2.07 2.43 2.07 2.43 2.08 2.43 2.08 2.43 2.08 2.43 2.08 2.43 2.08 2.43 2.08 2.43 2.08 2.43 2.08 2.43 2.08 2.43 2.08 2.43 2.08 2.43 2.08 2.43 2.08 2.43 2.07 2.43 2.07 2.43"/><path class="cls-38" d="M2.11,2.48h0a.1.1,0,0,1,0,0h0l0,0Z"/><polygon class="cls-38" points="2.08 2.29 2.08 2.29 2.08 2.29 2.08 2.29 2.08 2.29"/><polygon class="cls-38" points="2.08 2.29 2.07 2.29 2.07 2.29 2.07 2.29 2.08 2.29 2.08 2.29 2.08 2.29 2.08 2.29 2.08 2.29 2.08 2.29 2.08 2.29 2.08 2.29 2.08 2.29 2.08 2.29 2.08 2.29 2.08 2.29 2.08 2.29 2.08 2.29 2.08 2.3 2.08 2.29 2.08 2.29"/><path class="cls-4" d="M2.07,2a0,0,0,0,1,0,0h0a0,0,0,0,0,0,0Z"/><polygon class="cls-38" points="2.07 2.29 2.08 2.29 2.08 2.29 2.07 2.29 2.07 2.29 2.07 2.29 2.07 2.29 2.07 2.29 2.07 2.29"/><polygon class="cls-38" points="2.08 2.3 2.07 2.29 2.07 2.29 2.07 2.29 2.07 2.29 2.07 2.29 2.08 2.29 2.08 2.29 2.08 2.3 2.08 2.3 2.08 2.3"/><polygon class="cls-38" points="2.07 2.43 2.08 2.43 2.07 2.43 2.07 2.43 2.07 2.43 2.07 2.43 2.07 2.43"/><polygon class="cls-38" points="2.07 2.43 2.07 2.43 2.07 2.43 2.08 2.43 2.07 2.43"/><polygon class="cls-38" points="2.07 2.7 2.07 2.7 2.07 2.7 2.07 2.7 2.07 2.7 2.07 2.7 2.07 2.7 2.07 2.7"/><path class="cls-4" d="M2.08,2.38h0Z"/><path class="cls-4" d="M2.07,2.69h0Z"/><path class="cls-4" d="M2.06,2V2h0V2Z"/><polygon class="cls-38" points="2.06 2.39 2.07 2.39 2.07 2.39 2.07 2.39 2.06 2.39 2.06 2.39 2.06 2.39 2.06 2.39 2.06 2.39"/><path class="cls-4" d="M2.06,2.36l0,0h0Z"/><path class="cls-38" d="M2.06,2.39h0v0h0v0Z"/><polygon class="cls-38" points="2.06 2.69 2.06 2.69 2.06 2.69 2.06 2.69 2.07 2.69 2.06 2.69 2.06 2.69 2.06 2.69 2.06 2.69"/><polygon class="cls-38" points="2.06 2.03 2.06 2.03 2.06 2.03 2.06 2.03 2.06 2.04 2.06 2.04 2.06 2.03 2.06 2.03 2.06 2.03 2.06 2.03 2.06 2.03"/><path class="cls-38" d="M2.12,2.72l-.05,0h0l.05,0Z"/><path class="cls-4" d="M2.06,2.54s0,0,0,0h0l0,0Z"/><path class="cls-38" d="M2.08,2.05l0,0h0Z"/><path class="cls-38" d="M2.06,2.39v0h0v0Z"/><polygon class="cls-38" points="2.06 2.37 2.06 2.37 2.06 2.37 2.06 2.36 2.06 2.37 2.06 2.37 2.06 2.37 2.06 2.37 2.06 2.37"/><path class="cls-38" d="M2.06,2.36h0a.22.22,0,0,1,0-.08h0a.14.14,0,0,0,0,.06Z"/><path class="cls-4" d="M2.1,2.56h0Z"/><path class="cls-4" d="M2.05,2.65h0s0,0,0,0h0Z"/><polygon class="cls-4" points="2.05 2.55 2.06 2.54 2.06 2.54 2.06 2.54 2.06 2.54 2.06 2.55 2.06 2.55 2.06 2.55 2.05 2.55"/><path class="cls-4" d="M2.06,2.65h0l0,0h0Z"/><polygon class="cls-4" points="2.05 2.65 2.05 2.65 2.05 2.65 2.05 2.65 2.05 2.65 2.05 2.65 2.05 2.65 2.06 2.65 2.06 2.65 2.05 2.65 2.05 2.65 2.05 2.65"/><polygon class="cls-4" points="2.05 2.65 2.05 2.65 2.05 2.65 2.05 2.66 2.05 2.66 2.05 2.65 2.05 2.65"/><path class="cls-38" d="M2.06,2.69a0,0,0,0,1,0,0h0v0Z"/><polygon class="cls-38" points="2.05 2.65 2.05 2.65 2.05 2.65 2.05 2.65"/><polygon class="cls-4" points="2.05 2.65 2.05 2.65 2.05 2.65 2.05 2.65 2.05 2.65 2.05 2.65 2.05 2.65"/><polygon class="cls-38" points="2.05 2.66 2.05 2.65 2.05 2.65 2.05 2.65 2.05 2.66 2.05 2.66 2.05 2.66 2.05 2.66 2.05 2.66 2.05 2.66 2.05 2.66 2.05 2.66"/><polygon class="cls-38" points="2.05 2.65 2.05 2.66 2.04 2.65 2.05 2.65 2.05 2.65 2.05 2.65"/><polygon class="cls-38" points="2.04 2.65 2.05 2.65 2.05 2.65 2.05 2.65 2.05 2.65 2.05 2.65 2.05 2.65 2.05 2.65 2.04 2.65 2.04 2.65 2.04 2.65 2.04 2.65"/><path class="cls-4" d="M2,2.6a.43.43,0,0,1,0-.05h0a.08.08,0,0,0,0,.06H2Z"/><path class="cls-4" d="M2,2.61Z"/><path class="cls-4" d="M2.08,2Z"/><polygon class="cls-38" points="2.04 2.61 2.04 2.61 2.04 2.61 2.04 2.61 2.04 2.61 2.04 2.61"/><path class="cls-4" d="M2,2.51s0,0,0,0h0l0,0,0,0H2Z"/><polygon class="cls-38" points="2.04 2.61 2.04 2.61 2.04 2.61 2.04 2.61 2.04 2.61 2.04 2.61 2.04 2.61 2.04 2.61 2.04 2.61 2.04 2.61 2.04 2.61 2.04 2.61"/><polygon class="cls-38" points="2.04 2.61 2.04 2.61 2.04 2.61 2.04 2.61 2.04 2.61 2.04 2.61 2.04 2.61 2.04 2.61 2.04 2.61"/><path class="cls-38" d="M2,2.61H2v0H2v0Z"/><polygon class="cls-38" points="2.04 2.61 2.04 2.6 2.04 2.6 2.04 2.61 2.04 2.61 2.04 2.61 2.04 2.61 2.04 2.61 2.04 2.61 2.04 2.61 2.04 2.61 2.04 2.61 2.04 2.61 2.04 2.61"/><polygon class="cls-38" points="2.04 1.98 2.04 1.98 2.03 1.98 2.03 1.98 2.03 1.98 2.03 1.98 2.03 1.98 2.03 1.98 2.04 1.98"/><path class="cls-38" d="M2,2H2l0,0h0A.05.05,0,0,1,2,2Z"/><path class="cls-38" d="M2.18,1.9h0s-.06,0-.07,0l0,0a.14.14,0,0,0,0-.06h0s0,0,0,0,0,0,0,0a.07.07,0,0,0-.08,0H2s0,0,0,0v0H2V2H2V2H2v0l0,0H2c0-.06.08-.05.08-.05h0s0,0,0,.06a0,0,0,0,1,0,0h0l.07,0h0s-.06,0-.08.05h0a.12.12,0,0,0,.08-.05Z"/><path class="cls-37" d="M2,2.49a0,0,0,0,1,0,0H2s0,0,0,0H2l0,0H2Z"/><path class="cls-4" d="M2,2.39H2v0H2s0,0,0,0H2Z"/><path class="cls-4" d="M2,2.55H2Z"/><polygon class="cls-38" points="2.01 2.54 2.01 2.55 2 2.55 2 2.55 2 2.55 2 2.54 2.01 2.54 2.01 2.54"/><path class="cls-4" d="M2,2.29H2v0H2s0,0,0,0H2Z"/><path class="cls-38" d="M2,2.55H2l0,0H2v0s0,0,0,0H2Z"/><path class="cls-37" d="M2,2.42H2v0a0,0,0,0,0,0,0l0,0v0H2Z"/><path class="cls-4" d="M2,2.47a0,0,0,0,0,0,0H2s0,0,0,0H2l0,0a0,0,0,0,1,0,0H2Z"/><path class="cls-37" d="M2,2.33H2s0,0,0,0,0,0,0,0H2s0,0,0,0H2S2,2.32,2,2.33Z"/><path class="cls-37" d="M2,2.26l0,0H2l0,0H2s0,0,0,0l0,0Z"/><path class="cls-4" d="M2,2.41H2v0H2v0H2Z"/><path class="cls-4" d="M2,2.31v0h0l0,0H2l0,0,0,0S2,2.3,2,2.31Z"/><path class="cls-37" d="M2,2.41H2v0Z"/><path class="cls-37" d="M1.94,2.28a0,0,0,0,1,0,0s0,0,0,0H2l0,0Z"/><path class="cls-4" d="M2,2.25a0,0,0,0,0,0,0h0a.07.07,0,0,1,0,0H2S2,2.24,2,2.25Z"/><path class="cls-35" d="M1.93,2.29s0,0,0,0h0v0h0a0,0,0,0,0,0,0h0s0,0,0,0h0Z"/><path class="cls-35" d="M1.88,2.26h0s0,0,0,0h0s0,0,0,0Z"/><path class="cls-35" d="M1.84,2.21h0s0,0,0,0h0A0,0,0,0,1,1.84,2.21Z"/><path class="cls-38" d="M2.07,2.5H2v0H2v0H2V2.3s0,0,0,0l0,0H2v0H1.88a0,0,0,0,0,0,0,0,0,0,0,0,0,0h0v0h0v0a0,0,0,0,0,0,0h0s0,0,0,0h0a0,0,0,0,0,0,0h0v0H2v0H2v0h0a.06.06,0,0,0,0,0v0l0,0H2l0,0H2s0,0,0,0H2v0H2v0H2v0H2s0,0,0,0H2v0h0a.07.07,0,0,1,0,0H2l0,0H2l0,0H2v0H2s0,0,0,0H2v0H2v0H2v0h.06Zm-.21-.23s0,0,0,0h0Zm0,0s0,0,0,0h0s0,0,0,0h0s0,0,0,0h0Zm0,0s0,0,0,0h0s0,0,0,0h0v0h0a0,0,0,0,0,0,0h0Z"/><path class="cls-16" d="M3.48,2.24a.63.63,0,0,1,0,.23.57.57,0,0,0,0-.22l-.06,0h.07Z"/><path class="cls-43" d="M3.47,2.25l-.06,0h0l-.05,0a.43.43,0,0,1,.05.19h0s0,.13,0,.17a.24.24,0,0,0,0,.08.39.39,0,0,1,0-.06.14.14,0,0,0,0,.11,1.08,1.08,0,0,1,0-.22h0A.57.57,0,0,0,3.47,2.25Zm0,.28a.54.54,0,0,0,0-.19s-.05,0-.05-.07h0v0s.08,0,.08.11A1.24,1.24,0,0,1,3.46,2.53Z"/><path class="cls-44" d="M3.51,2.23H3.44l0,0-.08,0h0a.38.38,0,0,0,0-.1h0l0-.06h0l0,0v0l0,0h0l0,0s0,0,0,0h0a.76.76,0,0,1,.14.13.62.62,0,0,1,.12.2C3.44,2.17,3.51,2.22,3.51,2.23Z"/><path class="cls-44" d="M3.48,2.35a1.24,1.24,0,0,1,0,.18.36.36,0,0,0,0-.19s0,0,0-.07a0,0,0,0,0,.05,0l-.05,0S3.48,2.24,3.48,2.35Z"/><path class="cls-16" d="M3.48,2.69v0s0,.07,0,.11,0-.08,0-.13a.16.16,0,0,0,0-.07.39.39,0,0,1,0-.06A.14.14,0,0,0,3.48,2.69Z"/><path class="cls-45" d="M3.46,2.22l0,0h0l-.05,0,0,0h0Z"/><path class="cls-45" d="M3.45,2.29a0,0,0,0,1-.05,0h0v0Z"/><path class="cls-46" d="M3.36,2.2a.43.43,0,0,1,.05.19l0,0a.42.42,0,0,0-.07-.15v0s0,0,0,0h0Z"/><path class="cls-16" d="M3.4,2.69a.24.24,0,0,1,0,.09V2.65h0a1.2,1.2,0,0,0,0-.19h0v0S3.39,2.65,3.4,2.69Z"/><path class="cls-45" d="M3.39,2.37h0a.23.23,0,0,1-.07-.15A.42.42,0,0,1,3.39,2.37Z"/><path class="cls-43" d="M3.38,2.46a1.2,1.2,0,0,1,0,.19v0h0s0-.1,0-.22,0-.13-.06-.18a.13.13,0,0,1-.06,0v0s0,0,0,0l0,0a.42.42,0,0,0,.06.19Z"/><path class="cls-16" d="M3.38,2.45h0V2.4a.42.42,0,0,1-.06-.19l0,0h0v0a.23.23,0,0,0,.07.15A.22.22,0,0,0,3.38,2.45Z"/><path class="cls-43" d="M3.38,2.18h0a.26.26,0,0,0,0-.1h0l0-.07h0A.39.39,0,0,0,3.2,1.9a1.27,1.27,0,0,1,.14.17h0A.38.38,0,0,1,3.38,2.18Z"/><path class="cls-44" d="M3.36,2.41c0,.12,0,.18,0,.22a.24.24,0,0,1,0-.08s0-.1,0-.13a.05.05,0,0,0,0,0h0l0,0V2.3a.1.1,0,0,0,0-.1v0a.13.13,0,0,0,.06,0S3.32,2.38,3.36,2.41Z"/><path class="cls-45" d="M3.36,2.05h0a.05.05,0,0,0,0,0h0Z"/><path class="cls-16" d="M3.34,2.07h0A1.27,1.27,0,0,0,3.2,1.9.39.39,0,0,1,3.26,2l0-.07a.6.6,0,0,0-.13-.12v0h0l0,0h0l0,0,0,0,0,0,0,.06,0,0,0,0,0,.06A.05.05,0,0,1,3.34,2.07Z"/><path class="cls-16" d="M3.32,2.79s0,0,0,0a.14.14,0,0,1-.1,0h0l-.06,0A1.12,1.12,0,0,1,3,2.61h0v0l.09.1,0,0,.12.09,0,0h.06S3.31,2.8,3.32,2.79Z"/><path class="cls-45" d="M3.3,2.08a.26.26,0,0,1,0,.1s0,0,0,0h0s0,0,0,0h0s.06,0,.06,0A.13.13,0,0,0,3.3,2.08Z"/><path class="cls-16" d="M3.32,2.52a1.21,1.21,0,0,1,0,.19s0,0,0-.08a1.57,1.57,0,0,0,0-.25.21.21,0,0,1-.07-.16l0,0h0a.22.22,0,0,0,0,.1l0,0v0l0,0h0S3.31,2.49,3.32,2.52Z"/><path class="cls-43" d="M3.32,2.79s0,0,0,0h0l-.06,0h0l-.05,0h0l-.06,0h0L3,2.56l.1.09v0h0l0,0-.09-.1V2.5h0c.05,0,.22.18.3.23Z"/><path class="cls-43" d="M3.29,2.38a1.57,1.57,0,0,1,0,.25v0h0a.48.48,0,0,0,0-.21s0,0,0-.07a.28.28,0,0,0-.05-.1v0h0l0,0A.21.21,0,0,0,3.29,2.38Z"/><path class="cls-44" d="M3.3,2.08a.13.13,0,0,1,0,.09s0,0-.06,0h0s0,0,0,0l0,0h0v0h0s0,0,0,0-.16-.27-.2-.31v0a.6.6,0,0,1,.13.12l0,.07h0l0,.07Z"/><path class="cls-44" d="M3.27,2.39a.48.48,0,0,1,0,.21.25.25,0,0,1,0-.11c0-.07,0-.1,0-.12a.64.64,0,0,0-.06-.14h0a.28.28,0,0,1,.05.1C3.26,2.39,3.27,2.39,3.27,2.39Z"/><path class="cls-45" d="M3.29,2h0l0,0Z"/><path class="cls-46" d="M3.24,2.2a.1.1,0,0,1,0,.1v0a.17.17,0,0,0,0-.12Z"/><path class="cls-43" d="M3.08,1.84s.22.24.2.31,0,0,0,0A.27.27,0,0,1,3.17,2a.23.23,0,0,0-.11-.11v0a1.59,1.59,0,0,1,.19.2.6.6,0,0,0-.18-.2s0,0,0-.06Z"/><path class="cls-43" d="M3.27,2.82h0l0,0L3.06,2.7h0v0l.06,0v0l0,0v0l0,0Z"/><path class="cls-45" d="M3.23,2.21a.17.17,0,0,1,0,.12l0,0a.22.22,0,0,1,0-.1Z"/><path class="cls-16" d="M3.25,2.55a.35.35,0,0,0,0,.07l0-.06V2.5h0V2.44A.75.75,0,0,1,3.25,2.55Z"/><path class="cls-46" d="M3.27,2.82h0l0,0v0l0,0v0l-.06,0v0h0v0L3,2.56l.11.09h0l.06,0h0l.05,0h0Z"/><path class="cls-45" d="M3.24,2.16h0v0H3.17v0h0l-.05,0h.06v0l0,0,0,0s0,0,0,0Z"/><path class="cls-16" d="M3.23,2.85h0l-.06,0H3.13l0,0L3,2.75l-.09-.1h0L3,2.71l.1.1.07,0h.07Z"/><path class="cls-44" d="M3.24,2.12H3.19s-.08-.07-.08-.07h0S3,2,3,2H3s0,0,0,0a0,0,0,0,0,0,0A.23.23,0,0,1,3.17,2,.27.27,0,0,0,3.24,2.12Z"/><path class="cls-45" d="M3.23,1.87v0l0-.06h0Z"/><path class="cls-16" d="M3.23,2.5v0Z"/><path class="cls-44" d="M3.23,2.5v.06s0,0,0,0a.4.4,0,0,0-.06-.13h0a.85.85,0,0,0-.09-.14h0a1.43,1.43,0,0,0,.11.15.07.07,0,0,1,0,0,.43.43,0,0,1,0,0Z"/><path class="cls-43" d="M3.23,2.84H3.16l-.07,0L3,2.71l-.06-.07a0,0,0,0,0,0,0l.1.11.11.09,0,0h0Z"/><path class="cls-43" d="M3.23,2.44V2.5h0v0a.43.43,0,0,0,0,0h0Z"/><path class="cls-16" d="M3.23,2.44h0a.11.11,0,0,0,0-.05.29.29,0,0,1-.08-.14l0,0h0l.05,0h0a.14.14,0,0,0,0,.09l0,0,0,0A.17.17,0,0,0,3.23,2.44Z"/><path class="cls-46" d="M3.22,2.37h0l0,0a.24.24,0,0,0-.06-.11h0A.64.64,0,0,1,3.22,2.37Z"/><path class="cls-43" d="M3.22,2.43h0a.07.07,0,0,0,0,0,1.43,1.43,0,0,1-.11-.15,0,0,0,0,0,0,0l0,0a.29.29,0,0,0,.08.14A.11.11,0,0,1,3.22,2.43Z"/><path class="cls-45" d="M3.22,2.13h0v0h0l0,0h.05Z"/><path class="cls-44" d="M3.22,2.84h0l0,0L3,2.72l-.1-.11H3a1.12,1.12,0,0,0,.2.18Z"/><path class="cls-43" d="M3.2,2.16h0l0,0L3,2H3A0,0,0,0,0,3,2s.16.15.17.15Z"/><path class="cls-16" d="M3.17,2.12l0,0S3.07,2,3,2A0,0,0,0,0,3,2S3,2,3,2H3S3.1,2,3.14,2h0s0,.06.08.07h0Z"/><path class="cls-16" d="M3.21,2.56l0,0a.77.77,0,0,0,0-.1l0,0h0L3.05,2.3a.07.07,0,0,1,0,0h0v0l0,.07h0l0,0a.19.19,0,0,1,0,.08A.3.3,0,0,0,3.21,2.56Z"/><path class="cls-16" d="M3.26,2.11a1.59,1.59,0,0,0-.19-.2v0a0,0,0,0,1,0,0v0a.07.07,0,0,0,0,0l0,0s0,0,0,0h0s0,0,0,.06A.6.6,0,0,1,3.26,2.11Z"/><path class="cls-45" d="M3.2,2.35l0,0a.14.14,0,0,1,0-.09A.24.24,0,0,1,3.2,2.35Z"/><path class="cls-44" d="M3.17,2.44a.77.77,0,0,1,0,.1.21.21,0,0,1,0-.07.24.24,0,0,0-.06-.09h0v0A.34.34,0,0,1,3,2.27H3a.09.09,0,0,0,0,.05l.06.06,0,0h0Z"/><path class="cls-44" d="M3.11,1.72A.91.91,0,0,1,3,1.65a.5.5,0,0,0-.24-.06v0h.06a.2.2,0,0,1,.09.06s0,.05,0,.05l0-.05a.09.09,0,0,0-.06,0h0s0,0,0,0h0s0,0,.09.07.07,0,.08,0,0,0,.08,0h0l0,0h0s0,0,0,0h0a.06.06,0,0,0,0,0A.06.06,0,0,1,3.11,1.72ZM3,1.75H3s0,0,0-.07h0s0,0,0,0h0l0,0s0,0,0,0S3,1.74,3,1.75Zm.06,0a.18.18,0,0,0,0-.05l0,0s0,0,0,.05S3,1.79,3,1.79Z"/><path class="cls-45" d="M3.16,1.79s0,0,0,0l0,0,0,0Z"/><path class="cls-46" d="M3.16,2.39h0l0,0h0a.21.21,0,0,0,0-.07v0h0A.85.85,0,0,1,3.16,2.39Z"/><path class="cls-45" d="M3.15,1.76h0l0,0h0l0,0h0s0,0,0,0Z"/><path class="cls-44" d="M3.15,2.15v0a.11.11,0,0,1,0,0A.32.32,0,0,1,3,2H3Z"/><path class="cls-16" d="M3.14,2.86h0a.08.08,0,0,1-.09,0l0,0-.12-.12v0L3,2.75s0,0,.09.09h0l0,0Z"/><path class="cls-43" d="M3.15,2.19h0l0,0h0A.38.38,0,0,1,3,2.07s0,0,0,0a.32.32,0,0,0,.1.1A.11.11,0,0,0,3.15,2.19Z"/><path class="cls-44" d="M3.15,2.2H3.07a.18.18,0,0,0,0,0l0,0Z"/><path class="cls-43" d="M3.13,2.86h0l0,0h0C3,2.76,3,2.79,3,2.75l-.06-.07h0v0l0,0,.11.11,0,0,0,0Z"/><path class="cls-43" d="M3.14,2.39l0,0-.06-.06a.09.09,0,0,1,0-.05H3a.07.07,0,0,0,0,0Z"/><path class="cls-16" d="M3.12,2.51h0l0,0A.1.1,0,0,0,3,2.37.15.15,0,0,1,3,2.3H3s0,.05.07.06a.16.16,0,0,1,0,.08A.32.32,0,0,0,3.12,2.51Z"/><path class="cls-16" d="M3.11,2.16h0L3,2.09H3l0,0,0,0,0,0H3L3,2.16l0,.08H3s0-.06,0-.06H3s0,0,0,0h0a0,0,0,0,0,0,0h0s0,0,0,0l0,0v0H3S3,2,3,2H3s0,0,0,0A.38.38,0,0,0,3.11,2.16Z"/><path class="cls-44" d="M3.1,2.83l0,0,0,0,0,0-.11-.11,0,0v0s0,0,0,0l.09.1Z"/><path class="cls-43" d="M3.1,2.16h0l0,0a.18.18,0,0,1,0,0h0l0-.05H3l0,0H3Z"/><path class="cls-44" d="M3.1,2.5l0,0Z"/><path class="cls-45" d="M3.07,2.28a.21.21,0,0,1,0,.07Z"/><path class="cls-45" d="M3.09,2.2h0a0,0,0,0,1,0,0H3s.06,0,0,0H3l0,0H3a.17.17,0,0,0,0-.05l0,.05h0Z"/><path class="cls-44" d="M3.1,2.5l0,0L3,2.31H3A.15.15,0,0,0,3,2.37a.1.1,0,0,1,.05.09Z"/><path class="cls-45" d="M3.08,1.82v0h0s0,0,0,0l0,0a.07.07,0,0,1,0,0v0S3,2,3,2H3v0H3s0,0,0,0,0,0,0,0l0,0H3s0,0,0,0l0,0v0h0Z"/><path class="cls-46" d="M3.08,2.36v0l0,0h0L3,2.28H3A.34.34,0,0,0,3.08,2.36Z"/><path class="cls-44" d="M3,2.31l.12.15,0,0A.34.34,0,0,1,3,2.31Z"/><path class="cls-44" d="M3.06,1.8v0l0,0s0,0,0,0H3l0,0s0,0,0,0,0,0,0,0H3s0,0,0,0,0,0,0,0l0,0a0,0,0,0,1,0,0s0,0,0,0H3l0,0H3s0,0,.06,0v0Z"/><path class="cls-45" d="M3.05,2.36h0S3,2.31,3,2.3v0Z"/><path class="cls-43" d="M3.05,1.8v0s0,0-.06,0a.3.3,0,0,1-.08-.08L3,1.8Z"/><path class="cls-16" d="M3.05,3S3.07,3,3,3s0,0,0,0h0Z"/><path class="cls-43" d="M3.06,2.86H3s0,0-.06-.06l0-.06v0L3,2.83Z"/><path class="cls-16" d="M3.05,1.8H3l-.13-.05A.3.3,0,0,0,3,1.83H3l0,0H3l-.06,0s0,0,0,0S3,1.9,3,1.9s0,0,0,0,0,0,0,.06S3,2,3,2H2.92s0,0,0,0h0a.06.06,0,0,1-.06,0s0,0,0,0h0v0a.09.09,0,0,0,0,0h0a0,0,0,0,1-.05,0,0,0,0,0,0,.05,0h0s0,0,0,0l0,0H2.82s0,0,0,0v0s0,0-.06-.05,0,0,.09.07.07,0,.08,0S3,1.79,3.05,1.8Z"/><path class="cls-44" d="M3,2.23s0,0,0,0H3a0,0,0,0,0,0,0H3l0-.08L3,2.23Z"/><path class="cls-45" d="M3,1.75s0,0,0,0a.18.18,0,0,0,0-.05l0,0S3,1.72,3,1.75Z"/><path class="cls-44" d="M3,2.13a.17.17,0,0,1,0,.05H3l0,0,0,0,0,0Z"/><path class="cls-45" d="M3,2A0,0,0,0,1,3,2,0,0,0,0,1,3,2H3S3,2,3,2H3v0l0,0s0,0,0,0h0a0,0,0,0,1,0,0h0l0,0s0,0,0,0h0a.05.05,0,0,0,0,0v0l0,0h0s0,0,0,0h0s0,0,0,0a.08.08,0,0,0,0,0l0,0h0l0,0H3a0,0,0,0,0,0,0s0,0,0,0V2H3A0,0,0,0,0,3,2S3,2,3,2A0,0,0,0,0,3,2H3S3,2,3,2Z"/><path class="cls-16" d="M3.05,2.87H3l-.08-.11v0L3,2.8s0,.05.06.06Z"/><path class="cls-6" d="M3,2.91H2.94s0,0,0,0h0s0,0,0,0h0v0h0s0,0,0,0h0v0h0a0,0,0,0,0,0,0h0a0,0,0,0,0,0,0H3a0,0,0,0,0,0,0H3s0,0,0,0H3Zm-.08,0h0s0,0,0,0v0h0S2.93,2.91,2.93,2.92Zm0,0H3s0,0,0,0a0,0,0,0,1,0,0H3Z"/><path class="cls-35" d="M3,2.92s0,0,0,0H3s0,0-.06,0-.07,0-.1,0h0s0,0,0,0V3h0s0,0,0,0h0s0,0,0,0h0s0,0,0,0h0l0,0a0,0,0,0,0,0,0s0,0,0,0h0s0,0,0,0h0v0l0,.05h0v0h0a0,0,0,0,0,0,0h0a0,0,0,0,0,0,0H3a0,0,0,0,0,0,0H3Z"/><path class="cls-44" d="M3,2S3,2,3,2A0,0,0,0,1,3,2H3V2s0,0,0,0a0,0,0,0,1,0,0h0s0,0,0,0S3,2,3,2h0S3,2,3,2A0,0,0,0,0,3,2a.07.07,0,0,0,0-.05H3V2H3A0,0,0,0,1,3,2Z"/><path class="cls-43" d="M3,1.94A.07.07,0,0,1,3,2,0,0,0,0,1,3,2s0,0-.05,0h0V2H3S3,2,3,2s0,0,0-.06,0,0,0,0,0,0-.05-.06,0,0,0,0l.06,0s0,0,0,0a0,0,0,0,0,0,0l0,0s0,0,0,0,0,0,0,0H3Z"/><path class="cls-6" d="M3,3H3s0,0-.07,0a.06.06,0,0,0-.08,0h0l0,0a0,0,0,0,1,0,0h0V3s0,0,0,0h0s.06,0,.1,0S3,3,3,3H3Z"/><path class="cls-45" d="M3,2.24a0,0,0,0,1,0,0H3v0H3a0,0,0,0,0,0,0H3l0,0H3a.14.14,0,0,0,0-.06s0,0,0,.06Z"/><path class="cls-45" d="M3,1.7s0,0,0,.05H3s0,0,0-.07-.06,0-.05,0l0,0S3,1.69,3,1.7Z"/><path class="cls-35" d="M3,2.9s0,0,0,0H3s0,0,0,0a0,0,0,0,1,0,0Z"/><path class="cls-44" d="M3,2.18a.14.14,0,0,1,0,.06h0l0,0,0,0s0,0,0,0Z"/><path class="cls-44" d="M3,2.27a0,0,0,0,1,0,0h0v0h0s0,0,0,0l.06,0Z"/><path class="cls-43" d="M3,2s0,0,0,0,0,0,0,0l0,0h0s0,0,0,0l0,0h0V2H3Z"/><path class="cls-16" d="M2.93,2.24l0,0-.06,0h0s0,0,0,0v0s0-.05,0,0h0s0,0,0,0l0,0h0l0,0Z"/><path class="cls-43" d="M2.94,2.5v.1h0a0,0,0,0,1,0,0h0a.67.67,0,0,0,0-.18.31.31,0,0,1,0,.16.31.31,0,0,0,0-.15h0s0-.09,0-.11,0,0,0,0v0a.5.5,0,0,1,0,.13Z"/><polygon class="cls-16" points="2.94 2.5 2.94 2.5 2.94 2.5 2.94 2.5"/><path class="cls-16" d="M2.94,2.5h0a.5.5,0,0,0,0-.13v0s0-.07,0,0,0,.06,0,.11h0v0a.19.19,0,0,0,0-.08V2.35h0l0-.07h0l.06.07h0A.23.23,0,0,1,2.94,2.5Z"/><path class="cls-35" d="M2.94,2.89h0s0,0,0,0h0s0,0,0,0v0h0Z"/><path class="cls-16" d="M2.93,2.05s0,0,0,0h0V2s0,0,0,0l0,0h0a0,0,0,0,0,0,0Z"/><path class="cls-44" d="M2.92,2.11a.08.08,0,0,1,0,0s0,0,0,0h0a0,0,0,0,0,0,0v0a.08.08,0,0,0,0,0h0Z"/><path class="cls-44" d="M2.9,2.47a.67.67,0,0,1,0,.18h0s0,0,0,0v0h0s0,0,0,0,0,0,0,0h0l-.05-.07a.19.19,0,0,0,0-.08h0s.08.14.09.16,0-.06,0-.12,0,0,0,.07a.23.23,0,0,0,0-.07h0v0a.49.49,0,0,1,0,.09v0a.24.24,0,0,0,0-.08h0v0a.31.31,0,0,1,0,.15A.31.31,0,0,0,2.9,2.47Z"/><path class="cls-44" d="M2.92,2s0,0,0,0h0a0,0,0,0,1,0,0h0l0,0s0,0,0,0v0h0s0,0,0,0a0,0,0,0,0,0,0H2.78l0,0h0l0,0h0s0,0,0,0h0l0,0h0a.18.18,0,0,0,0-.06A.12.12,0,0,0,2.81,2a.17.17,0,0,0,0-.14.41.41,0,0,0,0-.08h0a.1.1,0,0,0,0-.05l0,0h0l-.06,0s0,0,0,0v0s0,0,.08,0h0v0h0l0,0s0,0,0,0,0,0,.08,0l.07,0,0,0h0s.05,0,.06.05v0s0,0,0,0h.05l0,0s0,0,0,0h0a0,0,0,0,1-.05,0,0,0,0,0,0,.05,0h0a.09.09,0,0,1,0,0v0h0s0,0,0,0a.06.06,0,0,0,.06,0Z"/><path class="cls-16" d="M2.92,2.81v0h0a.28.28,0,0,0,0-.12h0s0,0,0,0,0,0,0,0a.15.15,0,0,0,0,.07A.39.39,0,0,1,2.92,2.81Z"/><path class="cls-43" d="M2.92,2.76v.05a.39.39,0,0,0,0-.06.15.15,0,0,1,0-.07h0v.08Z"/><path class="cls-45" d="M2.91,2.3h0s0,0,0,0h0s0,0,0,0a.09.09,0,0,0,0,0Z"/><path class="cls-35" d="M2.91,2.87h0v0h0s0,0,0,0h0s0,0,0,0Z"/><path class="cls-43" d="M2.91,2.12v0a0,0,0,0,1,0,0h0s0,0,0,0,0,0,0,0h0A.08.08,0,0,1,2.91,2.12Z"/><path class="cls-46" d="M2.91,2.27a.09.09,0,0,1,0,0s0,0,0,0h0v0a.43.43,0,0,0,0,0h0s0,0,0,0Z"/><path class="cls-43" d="M2.87,2.71a.28.28,0,0,1,0,.12l0,0s0-.08,0-.1Z"/><path class="cls-45" d="M2.88,1.68s0,.05,0,.05l0-.05a.09.09,0,0,0-.06,0h0s0,0,0,0h0l0,0-.07,0s0,0-.08,0,0,0,0,0l0,0h.1A.2.2,0,0,1,2.88,1.68Z"/><path class="cls-16" d="M2.89,2.85h0v0h0l0-.09h0s0,.07,0,.1v0Z"/><path class="cls-16" d="M2.89,2.12s0,0,0,0h0s0,0,0,0h0a0,0,0,0,1,0,0s0,0,0,0h0S2.89,2.11,2.89,2.12Z"/><path class="cls-43" d="M2.89,2.85h0l0-.05h0a.14.14,0,0,0,0-.06s0,0,0,0h0l0,.09h0v0h0Z"/><path class="cls-44" d="M2.89,2.29v0l-.06-.07s0,0,0,0v0s0,0,0,0A.43.43,0,0,1,2.89,2.29Z"/><path class="cls-43" d="M2.89,2.6v0a.49.49,0,0,0,0-.09.33.33,0,0,0,0-.12h0a.19.19,0,0,1,0,.08h0A.24.24,0,0,1,2.89,2.6Z"/><path class="cls-44" d="M2.87,2.18v0a.05.05,0,0,1,0,0h0s0,0,0,0h0v0h.05s0,0,0,0a0,0,0,0,0,0,0Z"/><path class="cls-6" d="M2.86,2.86h0v0h0s0,0,0,0h0s0,0,0,0h0l0,0h0s0,0,0,0v0h0s0,0,0,0h0a0,0,0,0,0,0,0H2.7s0,0,0,0h.11l0,0a0,0,0,0,0,0,0S2.86,2.87,2.86,2.86Zm-.08,0Zm0,0Zm0,0h0Zm.06,0h0s0,0,0,0h0Zm0,0s0,0,0,0h0a0,0,0,0,1,0,0h0a0,0,0,0,1,0,0Z"/><path class="cls-43" d="M2.85,2.58a.23.23,0,0,1,0,.07s0,0,0-.07h0l0-.09,0,0h0l0,.08Z"/><path class="cls-35" d="M2.86,2.88h0a0,0,0,0,1,0,0h0s0,0,0,0h0Z"/><path class="cls-43" d="M2.86,2.88h0l0,0h0l0,0a0,0,0,0,1,0,0,.18.18,0,0,1,0-.11h0s0,0,0,0,0,0,0,.08,0,0,0,0a.14.14,0,0,1,0,0h0s0,0,0,0v0Z"/><path class="cls-43" d="M2.86,2.16a0,0,0,0,1,0,0s0,0,0,0h0s0,0,0,0h0l0,0h.06Z"/><path class="cls-16" d="M2.85,2.56v0l0-.08V2.44h0A.33.33,0,0,1,2.85,2.56Z"/><path class="cls-47" d="M2.85,2.35v.09h0V2.5h0l0,0h0l0-.05,0,0h0v0h0l.1.13v0h0l0-.06v0l0,0,0,0s0-.08,0-.12h0v0h0l0,0h0Z"/><path class="cls-16" d="M2.84,2.8v0a.14.14,0,0,0,0,0s0,0,0,0,0-.06,0-.08h0s0,0,0,0a.14.14,0,0,1,0,.06Z"/><path class="cls-35" d="M2.83,2.9a0,0,0,0,1,0,0l0,0s0,0,0,0h0a0,0,0,0,1,0,0Z"/><path class="cls-16" d="M2.82,2.58c0,.06,0,.11,0,.12a.59.59,0,0,0-.09-.18,0,0,0,0,0,0,0h0l0,.09Z"/><path class="cls-44" d="M2.82,2.3s0,.12,0,.12l0,0-.06-.1h0l.08.11S2.83,2.34,2.82,2.3Z"/><path class="cls-44" d="M2.83,2.7s0,0,0,0,0,0,0,0h0s0,0,0,0h0a.1.1,0,0,1-.05,0,.52.52,0,0,1-.07-.12.89.89,0,0,1-.19-.2h0l0,0a.27.27,0,0,0,.14.14h0v0h0a.23.23,0,0,0,.12.13,1.05,1.05,0,0,1-.07-.11h0l.06.1s0,0,0,0a0,0,0,0,0,0,0S2.81,2.75,2.83,2.7Z"/><path class="cls-43" d="M2.83,2.7h0s0,0,0,0a.08.08,0,0,0,0,0l.05.07Z"/><path class="cls-16" d="M2.85,2.34l0,0h0l0,0h0s0,0,0,0h0Z"/><path class="cls-16" d="M2.83,2.19h0s0,0,0,0h0l0,0Z"/><path class="cls-43" d="M2.82,2.3s0,.12,0,.1l-.08-.11a.11.11,0,0,1,.07.08s-.05-.11,0-.14l0,0h0v0Z"/><path class="cls-45" d="M2.82,1.88a.17.17,0,0,1,0,.14.12.12,0,0,1-.07.07h0v0h0l0,0h0s0,0,0,0h0v0h0a.2.2,0,0,0,0-.07h0l0-.09h0A.41.41,0,0,1,2.82,1.88Z"/><path class="cls-35" d="M2.82,2.87h0Z"/><path class="cls-43" d="M2.76,2.52a.59.59,0,0,1,.09.18s-.08-.13-.09-.16Z"/><path class="cls-35" d="M2.8,2.93h0a0,0,0,0,1,0,0,0,0,0,0,1,0,0h0Z"/><path class="cls-45" d="M2.8,1.94V2h0s0-.06,0-.07,0,0,0,0Z"/><path class="cls-46" d="M2.8,2h0s0,0,0,0h0s0,0,0,0h0a.16.16,0,0,1,0,.07h0V2a.35.35,0,0,0,0-.06h0s0,0,0-.06a0,0,0,0,0,0,0,.11.11,0,0,0,0-.07.15.15,0,0,0-.08,0l0,0s0-.05,0-.05,0,0,0,0h0s0,.06,0,.07h0l.06,0h0l.05,0,0,0h0s0,0,0,0h0s0,0,0,0a.12.12,0,0,1,0,.05l0,0h0s0,0,0,.06,0,0,0,0h0S2.79,1.94,2.8,2Z"/><path class="cls-43" d="M2.79,1.87a.2.2,0,0,1,0,.07s0,0,0,0h0s0,0,0,0,0,0,0-.06h0l0,0v0Z"/><polygon class="cls-35" points="2.79 2.9 2.79 2.9 2.79 2.91 2.79 2.91 2.79 2.9"/><path class="cls-45" d="M2.75,1.83s0,0,0,.06S2.75,1.84,2.75,1.83Z"/><path class="cls-16" d="M2.79,2.86h0s0,0-.06-.08,0,0,0,0h0A.18.18,0,0,0,2.79,2.86Z"/><path class="cls-16" d="M2.78,2.63a.08.08,0,0,1,0,0,0,0,0,0,1,0,0h0a1.15,1.15,0,0,1-.08-.14s0,0,.06,0h0A.19.19,0,0,1,2.78,2.63Z"/><path class="cls-45" d="M2.79,1.87v0a.12.12,0,0,0,0-.05s0,0,0,0h0Z"/><path class="cls-43" d="M2.78,2.22h0a.41.41,0,0,1,0-.07h0l0,0h0s0,0,0,0Z"/><path class="cls-16" d="M2.81,2.37a.11.11,0,0,0-.07-.08h0v0h0a.07.07,0,0,0,0,0h0S2.8,2.33,2.81,2.37Z"/><path class="cls-43" d="M2.75,2s0,0,0,0l0,0A.06.06,0,0,0,2.75,2Z"/><path class="cls-35" d="M2.78,2.9h0l0,0h0Z"/><path class="cls-43" d="M2.75,1.75a.1.1,0,0,1,0,.05h0a.12.12,0,0,0-.06-.06Z"/><path class="cls-44" d="M2.77,2.44v0l-.1-.13h0v0l.08.12Z"/><path class="cls-43" d="M2.77,2.65h0s0,0,0,0l-.06-.1V2.51h0A1.15,1.15,0,0,0,2.77,2.65Z"/><path class="cls-45" d="M2.75,2a.06.06,0,0,1,0,.07h0a.16.16,0,0,0,0-.07Z"/><path class="cls-47" d="M2.76,2.48a0,0,0,0,1,0,0v0h0s0,0-.06,0h0L2.6,2.4h0v0s.07.13.13.15l0,0a.41.41,0,0,1,0-.08.07.07,0,0,0,0,0h0Z"/><path class="cls-43" d="M2.73,2.29l.06.1,0,0Z"/><path class="cls-16" d="M2.76,3h0a0,0,0,0,0,0,0,0,0,0,0,1,0,0,0,0,0,0,1,0,0h0S2.75,3,2.76,3Z"/><path class="cls-43" d="M2.75,2.38l0,.06-.08-.12h0A.22.22,0,0,1,2.75,2.38Z"/><path class="cls-43" d="M2.75,2.15h0A.88.88,0,0,1,2.69,2a.44.44,0,0,0,.05.09h0A.18.18,0,0,1,2.75,2.15Z"/><path class="cls-16" d="M2.75,2.15l0,0,0,0h0Z"/><path class="cls-16" d="M2.75,2.36v0a.22.22,0,0,0-.06-.07.13.13,0,0,0,0-.06h0v0h0Z"/><path class="cls-46" d="M2.75,2.22a.07.07,0,0,1,0,0h0a.23.23,0,0,0,0-.12h0A.41.41,0,0,0,2.75,2.22Z"/><path class="cls-43" d="M2.72,2.15a.23.23,0,0,1,0,.12h0a.13.13,0,0,0,0-.06h0v0a.16.16,0,0,1,0,.08.15.15,0,0,0,0-.09Z"/><path class="cls-43" d="M2.76,1.78H2.7s0,0,0,0h0s0,0-.05,0h0a.09.09,0,0,0-.06,0h0l0,0h0s0,0,0,0h0l.06,0h0A.12.12,0,0,1,2.76,1.78Z"/><path class="cls-35" d="M2.76,2.92s0,0,0,0h0s0,0,0,0h0s0,0,0,0h0A0,0,0,0,0,2.76,2.92Z"/><path class="cls-45" d="M2.69,1.73s.05,0,.05,0h0l0,0-.05,0Z"/><path class="cls-44" d="M2.74,2.15h0s0,0,0-.05a.17.17,0,0,1,0,.05h0a.23.23,0,0,0,0-.14h0V2h0A.88.88,0,0,0,2.74,2.15Z"/><path class="cls-16" d="M2.74,2.06v0A.44.44,0,0,1,2.69,2h0V2a0,0,0,0,0,0,0h0a.35.35,0,0,1,0,.06Z"/><path class="cls-44" d="M2.74,2.74s0,0,0,0h0l0,0s0,0,0,0A.1.1,0,0,0,2.74,2.74Z"/><path class="cls-47" d="M2.73,2h0a0,0,0,0,1,0,0h0a.16.16,0,0,1,0,.06h0s0,0,0,0h0V1.94a0,0,0,0,1,0,0h0a.05.05,0,0,1,0,.05,0,0,0,0,0,0,0A.25.25,0,0,0,2.6,2s0-.06,0-.07h0s0,0,0,0a.08.08,0,0,0,0,0S2.71,2,2.73,2Z"/><path class="cls-48" d="M2.73,2h0s0,0,0,0a.08.08,0,0,1,0,0s0,0,0,0a.29.29,0,0,0,0-.08h0v0a.15.15,0,0,1,0,.06.34.34,0,0,0,0-.08l.06.07,0,0A.51.51,0,0,0,2.73,2Z"/><path class="cls-44" d="M2.75,2.47h0a.06.06,0,0,0,0,0Z"/><path class="cls-44" d="M2.72,2.51l0,0c-.06,0-.11-.11-.13-.15h0S2.67,2.49,2.72,2.51Z"/><path class="cls-16" d="M2.71,2.14a.15.15,0,0,1,0,.09.16.16,0,0,0,0-.08v.06a.1.1,0,0,0,0,0v.06h0l0,0h0a.23.23,0,0,0,0,.07h0a.11.11,0,0,1,0-.06.25.25,0,0,1,0-.08l0,0a.17.17,0,0,0,0-.05S2.69,2.14,2.71,2.14Z"/><path class="cls-43" d="M2.72,2.42a.06.06,0,0,1,0,0,.07.07,0,0,1,0,0,.41.41,0,0,0,0,.08c-.05,0-.09-.11-.1-.14h0a.61.61,0,0,0,0,.06s0-.07,0-.08a.1.1,0,0,1,0,0h0Z"/><path class="cls-16" d="M2.69,1.89s0,.05,0,.06a.51.51,0,0,1-.08-.09l0,0-.06-.07a.34.34,0,0,1,0,.08.15.15,0,0,0,0-.06h0s0,0-.06,0h0l0,0s0,0,.05,0h0a.56.56,0,0,1,0,.08Z"/><path class="cls-16" d="M2.68,2.59a1.05,1.05,0,0,0,.07.11.23.23,0,0,1-.12-.13Z"/><path class="cls-16" d="M2.71,2.92s0,0,0,0h0V3s0-.05,0-.06h0Z"/><path class="cls-46" d="M2.7,2.25a.13.13,0,0,1,0,.06h0v0h0a.37.37,0,0,0,0-.14A.13.13,0,0,1,2.7,2.25Z"/><path class="cls-43" d="M2.69,2.19a.37.37,0,0,1,0,.14h0a.23.23,0,0,1,0-.07h0l0,0h0V2.16a.1.1,0,0,1,0,0v0h0Z"/><path class="cls-47" d="M2.69,2.51v.07h0l-.05,0h0v0h0l-.05,0-.06-.09h0s.07.11.1.12V2.46h0s0,.1,0,.1,0,0,0-.06Z"/><path class="cls-16" d="M2.69,2.7s0,0,0,0,0,0,0-.06h0a.09.09,0,0,1,0-.06h0l0,0,0,0,0,0-.06-.08h0s0,0,0,0h0s.1.19.19.19A.52.52,0,0,0,2.69,2.7Z"/><path class="cls-44" d="M2.68,2.33h0l-.06,0h0v0l0,0a.11.11,0,0,0,0,.06h0Z"/><path class="cls-16" d="M2.68,2.35v0a.1.1,0,0,0,0,0s0,.08,0,.08a.61.61,0,0,1,0-.06h0s0,0,0,0l.06,0Z"/><path class="cls-44" d="M2.68,2.5s0,0,0,.06,0-.09,0-.1h0a.11.11,0,0,0,0,.06,0,0,0,0,0,0,0Z"/><path class="cls-43" d="M2.67,2.49a0,0,0,0,1,0,0,.11.11,0,0,1,0-.06h0s0,0,0,0a.19.19,0,0,1-.08-.11h0v0l0,0,.06.09a.13.13,0,0,1,0-.06h0Z"/><path class="cls-44" d="M2.66,2.13h0l0,0h0s0,0,0,0h0a.22.22,0,0,0,0-.09l0,0a.3.3,0,0,1,0,.13l0,0a.08.08,0,0,1,0,0S2.66,2.14,2.66,2.13Z"/><path class="cls-43" d="M2.67,2a.23.23,0,0,1,0,.14s0,0,0,0a.08.08,0,0,0,0,0l0,0a.19.19,0,0,0,0-.15Z"/><path class="cls-45" d="M2.6,1.7a.09.09,0,0,1,.06,0h0l-.06,0Z"/><path class="cls-16" d="M2.65,2a.19.19,0,0,1,0,.15.3.3,0,0,0,0-.13l0,0h0a.16.16,0,0,0,0-.06Z"/><path class="cls-16" d="M2.64,2.68a.14.14,0,0,1,0,.09s0-.07,0-.1h0Z"/><path class="cls-43" d="M2.64,2.17a.25.25,0,0,0,0,.08l0,0V2.18h0Z"/><path class="cls-44" d="M2.64,2.67s0,.1,0,.1,0,0,0,0a.23.23,0,0,1,0-.12.09.09,0,0,0,0,.06Z"/><path class="cls-46" d="M2.61,1.88h0l0,0,0,0h0l0,0,0,0,0,0a.05.05,0,0,1,0,.05,0,0,0,0,0,0,0A.25.25,0,0,0,2.6,2s0-.06,0-.07h0A.29.29,0,0,0,2.61,1.88Zm0,0,0,0s0,0,0,0Z"/><path class="cls-46" d="M2.63,1.78v0H2.47a.2.2,0,0,1,.08,0A.09.09,0,0,0,2.63,1.78Z"/><path class="cls-47" d="M2.63,1.8h0s0,0-.05,0l0,0h.11Z"/><path class="cls-46" d="M2.62,2.31s0,0,0,0h0v0h0s0-.06,0-.07v0h0s0,0,0-.07l0,0a.23.23,0,0,1,0-.11h0v.13Z"/><path class="cls-45" d="M2.62,1.65s0,0,0,0h0s0,0,0,0h0l0,0s0,0,0-.07a.05.05,0,0,1,.05,0Z"/><path class="cls-44" d="M2.62,2.46v.07s-.09-.1-.1-.12a0,0,0,0,1,0,0,.19.19,0,0,0,.08.11S2.62,2.47,2.62,2.46Z"/><path class="cls-47" d="M2.61,2.05a.22.22,0,0,1,0,.09h0a.11.11,0,0,1-.06.06h0a0,0,0,0,1,0,0,0,0,0,0,1,0,0h0a.15.15,0,0,0,0-.08l0,0v0l0,0s0,0,0,0h0a.19.19,0,0,1,0,.1.15.15,0,0,0,.06-.12h0Z"/><path class="cls-44" d="M2.61,2.16h0a.23.23,0,0,0,0,.11l0,0s0,.07,0,.07h0v0h0l0-.07a0,0,0,0,0,0,0s0,0,0,0a0,0,0,0,0,0,0A.12.12,0,0,0,2.61,2.16Z"/><path class="cls-47" d="M2.6,1.86v0h0l0,0,0,0H2.46a0,0,0,0,0,0,0h0s.05,0,.06,0h0Z"/><path class="cls-44" d="M2.6,2.05h0a.15.15,0,0,1-.06.12.19.19,0,0,0,0-.1l0,0Z"/><path class="cls-16" d="M2.6,2.4a.13.13,0,0,0,0,.06l-.06-.09,0,0Z"/><path class="cls-46" d="M2.6,2.6h0a.23.23,0,0,0,0,.12h0s0,0,0,0v0a.25.25,0,0,1,0-.08Z"/><path class="cls-16" d="M2.6,2.14s0,0,0,0a.12.12,0,0,1,0,0h0A.11.11,0,0,0,2.6,2.14Z"/><path class="cls-16" d="M2.59,2.72h0a.28.28,0,0,1-.13,0S2.57,2.75,2.59,2.72Z"/><path class="cls-16" d="M2.59,1.87v0l0,0S2.59,1.87,2.59,1.87Z"/><path class="cls-47" d="M2.58,2.33s0,0,0,.07l0,0,0,0v0h0v0h0v0s0-.06,0-.07v0h0a0,0,0,0,0,0,0h0a0,0,0,0,1,0,0s0,0,0,0a0,0,0,0,1,0,0l0,.07Z"/><path class="cls-43" d="M2.56,2s0,0,0,0l0,0h0s0,0,0,0l0,0V2Z"/><path class="cls-44" d="M2.58,2.68s0,0,0,0-.12,0-.12,0A.24.24,0,0,0,2.58,2.68Z"/><path class="cls-43" d="M2.57,2.51l.05,0a.27.27,0,0,1-.14-.14l0,0h0A.16.16,0,0,0,2.57,2.51Z"/><path class="cls-46" d="M2.58,2.66v0a.24.24,0,0,1-.11.08,0,0,0,0,1,0,0h0v0s0,0,0,0h.07Z"/><path class="cls-47" d="M2.56,1.89s0,0,0,0h0l0,0a.16.16,0,0,0-.09,0h0l0,0h0l0,0Z"/><path class="cls-48" d="M2.58,1.92h0l0,0,0,0v0h0v0l0,0h0s0,0,0,0h0a.16.16,0,0,1,.09,0Z"/><path class="cls-44" d="M2.57,2.58a.25.25,0,0,0,0,.08h0s0-.06,0-.07h0s0,0,0,0Z"/><path class="cls-46" d="M2.57,1.92a0,0,0,0,0,0,0V2h0l0,0V2a.08.08,0,0,1,0,.05.2.2,0,0,0,0-.05,0,0,0,0,0,0,0v0l0,0Z"/><path class="cls-47" d="M2.55,2h0V2l0,0,0,0h0l0,0H2.42a.39.39,0,0,0,0-.06.08.08,0,0,0,0,0,0,0,0,0,1,0,.05s0,0,0,0V2a.06.06,0,0,0,0,0,0,0,0,0,0,0,0h0v0l0,0v0s0,0,0,0V2l0,0Z"/><path class="cls-16" d="M2.55,2a.2.2,0,0,1,0,.05.08.08,0,0,0,0-.05v0s0,0,0,0A0,0,0,0,1,2.55,2Z"/><path class="cls-47" d="M2.54,2.6s0,0,0,.07h0s0,0,0,0h0v0h0v0l0,0s0,0,0,0Z"/><path class="cls-16" d="M2.51,2.42l.06.09a.16.16,0,0,1-.06-.08Z"/><path class="cls-44" d="M2.53,2.06a.15.15,0,0,1,0,.08v0l0,0,0-.05,0,0,0-.07Z"/><path class="cls-46" d="M2.52,2.67h0v0Z"/><path class="cls-47" d="M2.53,2.38h0a0,0,0,0,0,0,0h0l0,0,0,0h0a.37.37,0,0,1,0-.09h0a.24.24,0,0,1,0-.09h0s0,0,0,0h0a.3.3,0,0,1,0,.08l0,0s0,.07,0,.09v0a.06.06,0,0,0,0,.05s0,0,0,0Z"/><path class="cls-46" d="M2.52,2.34v0s0,0,0,0a.06.06,0,0,1,0-.05h0a.25.25,0,0,1,0-.07s0-.06,0-.07h0v0s0,.06,0,.07v0Z"/><path class="cls-46" d="M2.43,2.38a.89.89,0,0,0,.19.2c-.09,0-.18-.16-.19-.19Z"/><path class="cls-44" d="M2.52,2.19h0s0,.07,0,.07a.25.25,0,0,0,0,.07h0v0s0-.08,0-.09l0,0a.3.3,0,0,0,0-.08h0l0,0A0,0,0,0,0,2.52,2.19Z"/><path class="cls-47" d="M2.51,2.1v0h0a.06.06,0,0,1-.06,0h0v0h0v0a.49.49,0,0,1,0-.07l0,0h0l0,.07,0,0,0,.05Z"/><path class="cls-46" d="M2.5,1.89a0,0,0,0,1,0,0,.06.06,0,0,1,0,0h0s0,0,0,0h0l0,0Z"/><path class="cls-16" d="M2.51,2.15h0l0,0h0s0,0,0,0h0A.06.06,0,0,0,2.51,2.15Z"/><path class="cls-47" d="M2.51,2.62s0,0,0,0l-.06,0h0s0,0,0,0h0Z"/><path class="cls-44" d="M2.51,2.61h0a.15.15,0,0,1-.05-.06Z"/><path class="cls-47" d="M2.5,2.58v0l-.07,0h0s0,0,0,0Z"/><path class="cls-48" d="M2.5,2s0,0,0,0a0,0,0,0,0,0-.05,0,0,0,0,1,0,0h0Z"/><path class="cls-44" d="M2.5,2.57h0s0,0,0,0a.17.17,0,0,1,0-.12l.06.08Z"/><path class="cls-47" d="M2.51,2.69s0,0,0,0-.1,0-.1,0h0s0,0,0,0h0Z"/><path class="cls-48" d="M2.45,1.91h0a.08.08,0,0,0,0,0h0l0,0h0l0,0h0a0,0,0,0,0,0,0h0s0,0,0,0a.13.13,0,0,1,0,.06v0s0,0,0,0l0,0-.05,0h0a0,0,0,0,1,0,0l0,0s.1,0,.1,0h0s0,0,0,0a.08.08,0,0,0,0,0,0,0,0,0,1,0,0h0S2.46,1.92,2.45,1.91Zm-.05,0h0s0,0,0,0h0Zm.06,0h0s0,0,0,0a0,0,0,0,0,0,0S2.46,2,2.46,2Z"/><path class="cls-44" d="M2.49,2.71v0s-.09,0-.09,0S2.44,2.72,2.49,2.71Z"/><path class="cls-16" d="M2.48,2.73h0s-.08,0-.09,0h0S2.43,2.72,2.48,2.73Z"/><path class="cls-47" d="M2.47,1.89h0a.08.08,0,0,0,0,0h0l0,0s0,0,0,0Z"/><path class="cls-46" d="M2.47,2.67h0Z"/><path class="cls-47" d="M2.46,2.68h0s0,0,0,0h0Z"/><path class="cls-16" d="M2.45,1.94a0,0,0,0,0,0,0s0,0,0,0h0S2.44,1.93,2.45,1.94Z"/><path class="cls-47" d="M2.46,2.64s0,0,0,0h0Z"/><path class="cls-46" d="M2.46,2.67h0Z"/><path class="cls-47" d="M2.46,2.68Z"/><path class="cls-35" d="M2.46,2.68h0Z"/><path class="cls-44" d="M2.46,2.07h0a.49.49,0,0,0,0,.07A.19.19,0,0,1,2.46,2.07Z"/><path class="cls-47" d="M2.46,2.64h0l0,0Z"/><path class="cls-6" d="M2.44,2.62h0v0h-.1v0l0,0a0,0,0,0,0,0,0h0s0,0,0,0h0v0h0a0,0,0,0,0,0,0h0l0,0h0s0,0,0,0,0,0,0,0h0l0,0h0s0,0,0,0h0v0h0s0,0,0,0h0v0h0s0,0,0,0h0a0,0,0,0,0,0,0h0a0,0,0,0,0,0,0h.07v0S2.44,2.63,2.44,2.62Zm-.24,0h0v0h0a0,0,0,0,0,0,0h0v0A0,0,0,0,1,2.2,2.59Zm0,.05Zm0,0Zm0,0h0Zm.07,0h0l0,0h0a0,0,0,0,1,0,0h.06v0h0l0,0Zm.07,0h0s0,0,0,0,0,0,0,0h0v0h0s0,0,0,0h0Zm0,0h0v0h0v0h0Zm0,0h0s0,0,0,0h0S2.43,2.66,2.42,2.66Zm0,0h0s0,0,0,0h0l0,0h0a0,0,0,0,1,0,0h0Z"/><path class="cls-47" d="M2.46,1.72a.13.13,0,0,1,0,.06,0,0,0,0,1,0,0h0s0,0,0,0l0,0H2.32a0,0,0,0,0,0,0v0h0s.07,0,.08-.07h0a.15.15,0,0,0,0-.08h0a.22.22,0,0,1,0,.1.08.08,0,0,1,0,0c.05,0,.07,0,.08-.09h0a.09.09,0,0,0,0-.05Z"/><path class="cls-47" d="M2.44,2.07h0a.19.19,0,0,0,0,.07v0h0Z"/><path class="cls-35" d="M2.44,2.62h0l0,0h0v0S2.44,2.63,2.44,2.62Z"/><path class="cls-16" d="M2.44,1.81a0,0,0,0,0,0,0v0h0Z"/><path class="cls-46" d="M2.46,2.65h0Z"/><path class="cls-46" d="M2.44,2.37H2.38a.31.31,0,0,0,0-.1.21.21,0,0,1,0-.15h0v0a.2.2,0,0,0,0,.12.15.15,0,0,0,0,.08v0h0V2.28A.37.37,0,0,0,2.44,2.37Z"/><path class="cls-16" d="M2.42,1.89h0l0,0h0s0,0,0,0h0Z"/><path class="cls-44" d="M2.44,2.07h0l0,.09h0S2.42,2.09,2.44,2.07Z"/><path class="cls-35" d="M2.43,2.59a0,0,0,0,1,0,0h0l0,0h0s0,0,0,0h0l0,0Z"/><path class="cls-44" d="M2.44,2.17v0a.24.24,0,0,0,0,.09h0v.08h0V2.29s0,0,0,0a.35.35,0,0,1,0-.06h0l0-.07Z"/><path class="cls-16" d="M2.44,2.16h0v0Z"/><path class="cls-35" d="M2.42,2.64s0,0,0,0h0s0,0,0,0Z"/><path class="cls-48" d="M2.42,1.77c0,.06,0,.06-.08.09a.08.08,0,0,0,0,0,.11.11,0,0,0,0-.07v0Z"/><path class="cls-47" d="M2.41,2.29v.09a.15.15,0,0,1,0-.08.2.2,0,0,1,0-.12h0l0,.07h0a.35.35,0,0,0,0,.06S2.41,2.29,2.41,2.29Z"/><path class="cls-4" d="M2.41,2h0l0,0a0,0,0,0,0,0,0H2.27l0,0,0,0a.12.12,0,0,0,0,0s0,0,0,0a.06.06,0,0,1,0-.07h0s0,0,0,0h0l0,0S2.41,1.94,2.41,2Z"/><path class="cls-16" d="M2.41,1.75h0a.11.11,0,0,1,0,.07.22.22,0,0,0,0-.1Z"/><path class="cls-35" d="M2.4,2.62v0h0l0,0h0a0,0,0,0,0,0,0h0Z"/><path class="cls-35" d="M2.39,2l0,0a.15.15,0,0,1-.09,0h0s0,0,0,0,0,0,0,0h0s0,0,0,0h0s0,0,0,0a.09.09,0,0,0,0,0h0a.07.07,0,0,1,0,0s0,0,0,0a0,0,0,0,1,0,0h0l0,0h0a.06.06,0,0,0,0,.07s0,0,0,0a.12.12,0,0,1,0,0l0,0,0,0h.08A0,0,0,0,1,2.39,2Z"/><path class="cls-16" d="M2.37,1.87h0l-.05,0Z"/><path class="cls-46" d="M2.36,1.81l0,0s-.06.06-.08.07,0-.05,0-.06a.28.28,0,0,1-.06.09.06.06,0,0,0,0,0h0s0,0,0,0,0,0,0,0,0,0,0,0l0,0s0,0,0,0h0a.11.11,0,0,1,0,.05.14.14,0,0,0,0-.09s0,.06,0,.08Z"/><path class="cls-49" d="M2.36,2s0,0,0,0h0a.08.08,0,0,0-.09,0s0,.06,0,.08h0a.05.05,0,0,1,0,0,0,0,0,0,1,0,0s0,0,0,0a0,0,0,0,0,0,0s0,0,0,0a.07.07,0,0,0,0,0h0a.09.09,0,0,1,0,0s0,0,0,0h0s0,0,0,0h0S2.36,2,2.36,2Z"/><path class="cls-35" d="M2.36,2.63v.05h0s0,0,0,0,0,0,0,0v0h0s0,0,0,0h0Z"/><path class="cls-16" d="M2.35,1.74a.17.17,0,0,1,0,.07h0S2.35,1.74,2.35,1.74Z"/><path class="cls-35" d="M2.33,2.59v0h0l0,0h0l0,0h.07Z"/><path class="cls-50" d="M2.31,1.88a0,0,0,0,1,0,0h0l0,0s0,0,0,0Z"/><path class="cls-51" d="M2.31,1.88h0s0,0,0,0h0s0,0,0,0a0,0,0,0,0,0,0h0Z"/><polygon class="cls-6" points="2.31 2.69 2.31 2.69 2.31 2.68 2.31 2.69"/><path class="cls-47" d="M2.31,1.8s0,.05,0,.06h0s0,0,0,0h0l0,0a0,0,0,0,1,0,0h0a.06.06,0,0,1,0,0A.28.28,0,0,0,2.31,1.8Z"/><path class="cls-16" d="M2.31,2.69a.06.06,0,0,1-.05,0h0l0,0Z"/><path class="cls-16" d="M2.32,2.53l0,.05h0a0,0,0,0,1,0,0h0S2.29,2.53,2.32,2.53Z"/><path class="cls-16" d="M2.29,1.87a0,0,0,0,1,0,0s0,0,0,0S2.29,1.88,2.29,1.87Z"/><path class="cls-16" d="M2.31,1.78s0,0,0,0l0,0s0,0,0,0,0,0,0,0,0,0,0,0h0a0,0,0,0,1,0,0A.26.26,0,0,0,2.31,1.78Z"/><polygon class="cls-35" points="2.28 2.65 2.28 2.65 2.28 2.66 2.28 2.65 2.28 2.65"/><path class="cls-6" d="M2.28,2.66Z"/><path class="cls-35" d="M2.28,2.65h0Z"/><path class="cls-16" d="M2.28,2.69s0,0,0,0h0S2.28,2.69,2.28,2.69Z"/><path class="cls-35" d="M2.26,2.62s0,0,0,0h0v0h0Z"/><path class="cls-35" d="M2.27,2.6h0s0,0,0,0h0Z"/><path class="cls-35" d="M2.27,2.55a0,0,0,0,0,0,0h0v0h0Z"/><path class="cls-6" d="M2.25,2.66h0Z"/><path class="cls-35" d="M2.25,2.66h0Z"/><path class="cls-16" d="M2.27,2.7h0a0,0,0,0,1,0,0h0Z"/><path class="cls-35" d="M2.25,2.66h0S2.24,2.66,2.25,2.66Z"/><path class="cls-46" d="M2.22,1.93h0s0,0,0,0h0a0,0,0,0,1,0,0Z"/><polygon class="cls-6" points="2.24 2.68 2.23 2.68 2.23 2.68 2.23 2.68 2.23 2.68 2.23 2.68 2.23 2.68 2.22 2.67 2.23 2.67 2.23 2.67 2.23 2.67 2.24 2.68"/><path class="cls-6" d="M2.23,2.68h0a0,0,0,0,0,0,0h0Z"/><polygon class="cls-35" points="2.23 2.68 2.23 2.68 2.23 2.68 2.23 2.68"/><path class="cls-35" d="M2.23,2.68Z"/><polygon class="cls-6" points="2.22 2.67 2.23 2.68 2.22 2.67 2.22 2.67 2.22 2.67"/><polygon class="cls-35" points="2.22 2.67 2.22 2.67 2.22 2.67 2.22 2.67"/><path class="cls-35" d="M2.22,2.62h0Z"/><path class="cls-35" d="M2.22,2.6h0a0,0,0,0,0,0,0h0v0a0,0,0,0,1,0,0h0Z"/><path class="cls-35" d="M2.21,2.66v0h0s0,0,0,0h0Z"/><path class="cls-35" d="M2.2,2.65Z"/><path class="cls-35" d="M2.19,2.62h0v0h0Z"/><g class="cls-52"><circle class="cls-53" cx="2.65" cy="2.65" r="2.65"/><path class="cls-54" d="M2.65.15a2.51,2.51,0,1,1-2.5,2.5A2.5,2.5,0,0,1,2.65.15Z"/></g></g></g></g></svg>