<svg xmlns="http://www.w3.org/2000/svg" xmlns:xlink="http://www.w3.org/1999/xlink" viewBox="0 0 5.31 5.31"><defs><style>.cls-1{isolation:isolate;}.cls-2{fill:#fff;}.cls-3{fill:#b12233;}.cls-4{fill:#3c3b6d;}.cls-5{mix-blend-mode:multiply;}.cls-6{fill:url(#linear-gradient);}.cls-7{fill:url(#linear-gradient-2);}</style><linearGradient id="linear-gradient" x1="-69.32" y1="-38.99" x2="-64.01" y2="-38.99" gradientTransform="translate(-16.91 -72.06) rotate(-135)" gradientUnits="userSpaceOnUse"><stop offset="0" stop-color="#999"/><stop offset="0.1" stop-color="#a8a8a8"/><stop offset="0.36" stop-color="#cecece"/><stop offset="0.61" stop-color="#e9e9e9"/><stop offset="0.83" stop-color="#f9f9f9"/><stop offset="1" stop-color="#fff"/></linearGradient><linearGradient id="linear-gradient-2" x1="-160.53" y1="-47.13" x2="-157.03" y2="-43.63" gradientTransform="translate(161.41 48)" xlink:href="#linear-gradient"/></defs><g class="cls-1"><g id="Layer_2" data-name="Layer 2"><g id="Layer_1-2" data-name="Layer 1"><path class="cls-2" d="M5.1,3.67a2.63,2.63,0,0,1-.21.41H.42A2.67,2.67,0,0,1,.2,3.67Z"/><path class="cls-3" d="M5.24,3.27a2.7,2.7,0,0,1-.14.4H.2a2.67,2.67,0,0,1-.13-.4Z"/><path class="cls-2" d="M5.3,2.86a2.9,2.9,0,0,1-.06.41H.07A2.9,2.9,0,0,1,0,2.86Z"/><path class="cls-3" d="M4.89,4.08a2.64,2.64,0,0,1-.32.41H.74a2.15,2.15,0,0,1-.32-.41Z"/><path class="cls-3" d="M4.07,4.9a2.65,2.65,0,0,1-1.42.41A2.62,2.62,0,0,1,1.24,4.9Z"/><path class="cls-2" d="M4.57,4.49a2.8,2.8,0,0,1-.5.41H1.24a2.8,2.8,0,0,1-.5-.41Z"/><path class="cls-2" d="M4.57.82H.74a2.43,2.43,0,0,1,.5-.41H4.07A2.43,2.43,0,0,1,4.57.82Z"/><path class="cls-3" d="M4.07.41H1.24L1.5.26h0l.09,0,0,0a2.72,2.72,0,0,1,1-.19h0A2.65,2.65,0,0,1,4.07.41Z"/><path class="cls-3" d="M4.89,1.22H.42l.07-.1h0A1.68,1.68,0,0,1,.74.82H4.57A3.12,3.12,0,0,1,4.89,1.22Z"/><path class="cls-3" d="M5.24,2H.07A2.8,2.8,0,0,1,.2,1.63H5.1A2.83,2.83,0,0,1,5.24,2Z"/><path class="cls-2" d="M5.1,1.63H.2a.2.2,0,0,0,0-.08l.09-.18.09-.15H4.89A3.17,3.17,0,0,1,5.1,1.63Z"/><path class="cls-2" d="M5.3,2.45H0V2.4s0-.1,0-.15A1.55,1.55,0,0,1,.07,2H5.24A2.7,2.7,0,0,1,5.3,2.45Z"/><path class="cls-3" d="M5.31,2.65c0,.07,0,.14,0,.21H0a1.48,1.48,0,0,1,0-.21,1.34,1.34,0,0,1,0-.2H5.3C5.3,2.52,5.31,2.58,5.31,2.65Z"/><path class="cls-4" d="M2.65,0V2.86H0a1.48,1.48,0,0,1,0-.21,1.34,1.34,0,0,1,0-.2V2.4s0-.1,0-.15A1.55,1.55,0,0,1,.07,2,2.8,2.8,0,0,1,.2,1.63a.2.2,0,0,0,0-.08l.09-.18.09-.15.07-.1h0A1.68,1.68,0,0,1,.74.82a2.43,2.43,0,0,1,.5-.41L1.5.26h0l.09,0,0,0A2.72,2.72,0,0,1,2.65,0Z"/><polygon class="cls-2" points="2.32 0.14 2.35 0.25 2.48 0.25 2.38 0.32 2.42 0.44 2.32 0.36 2.22 0.44 2.26 0.32 2.16 0.25 2.28 0.25 2.32 0.14"/><path class="cls-2" d="M1.73.41v0l0,0-.05,0-.06,0,0,0v0l0-.09L1.5.26h.11v0l0,0,0,.06H1.8L1.71.32Z"/><polygon class="cls-2" points="2.32 0.71 2.35 0.82 2.48 0.82 2.38 0.89 2.42 1.01 2.32 0.94 2.22 1.01 2.26 0.89 2.16 0.82 2.28 0.82 2.32 0.71"/><polygon class="cls-2" points="1.65 0.71 1.68 0.82 1.8 0.82 1.71 0.89 1.74 1.01 1.65 0.94 1.55 1.01 1.58 0.89 1.49 0.82 1.61 0.82 1.65 0.71"/><polygon class="cls-2" points="0.97 0.71 1.01 0.82 1.13 0.82 1.03 0.89 1.07 1.01 0.97 0.94 0.88 1.01 0.91 0.89 0.82 0.82 0.94 0.82 0.97 0.71"/><polygon class="cls-2" points="2.32 1.28 2.35 1.39 2.48 1.39 2.38 1.46 2.42 1.58 2.32 1.51 2.22 1.58 2.26 1.46 2.16 1.39 2.28 1.39 2.32 1.28"/><polygon class="cls-2" points="1.65 1.28 1.68 1.39 1.8 1.39 1.71 1.46 1.74 1.58 1.65 1.51 1.55 1.58 1.58 1.46 1.49 1.39 1.61 1.39 1.65 1.28"/><polygon class="cls-2" points="0.97 1.28 1.01 1.39 1.13 1.39 1.03 1.46 1.07 1.58 0.97 1.51 0.88 1.58 0.91 1.46 0.82 1.39 0.94 1.39 0.97 1.28"/><path class="cls-2" d="M.36,1.46l0,.12L.3,1.51l-.06,0,.09-.18v0H.46Z"/><polygon class="cls-2" points="2.32 1.85 2.35 1.96 2.48 1.96 2.38 2.04 2.42 2.15 2.32 2.08 2.22 2.15 2.26 2.04 2.16 1.96 2.28 1.96 2.32 1.85"/><polygon class="cls-2" points="1.65 1.85 1.68 1.96 1.8 1.96 1.71 2.04 1.74 2.15 1.65 2.08 1.55 2.15 1.58 2.04 1.49 1.96 1.61 1.96 1.65 1.85"/><polygon class="cls-2" points="0.97 1.85 1.01 1.96 1.13 1.96 1.03 2.04 1.07 2.15 0.97 2.08 0.88 2.15 0.91 2.04 0.82 1.96 0.94 1.96 0.97 1.85"/><polygon class="cls-2" points="0.3 1.85 0.34 1.96 0.46 1.96 0.36 2.04 0.4 2.15 0.3 2.08 0.2 2.15 0.24 2.04 0.14 1.96 0.27 1.96 0.3 1.85"/><polygon class="cls-2" points="2.32 2.42 2.35 2.54 2.48 2.54 2.38 2.61 2.42 2.72 2.32 2.65 2.22 2.72 2.26 2.61 2.16 2.54 2.28 2.54 2.32 2.42"/><polygon class="cls-2" points="1.65 2.42 1.68 2.54 1.8 2.54 1.71 2.61 1.74 2.72 1.65 2.65 1.55 2.72 1.58 2.61 1.49 2.54 1.61 2.54 1.65 2.42"/><polygon class="cls-2" points="0.97 2.42 1.01 2.54 1.13 2.54 1.03 2.61 1.07 2.72 0.97 2.65 0.88 2.72 0.91 2.61 0.82 2.54 0.94 2.54 0.97 2.42"/><polygon class="cls-2" points="0.3 2.42 0.34 2.54 0.46 2.54 0.36 2.61 0.4 2.72 0.3 2.65 0.2 2.72 0.24 2.61 0.14 2.54 0.27 2.54 0.3 2.42"/><polygon class="cls-2" points="1.98 2.13 2.02 2.25 2.14 2.25 2.04 2.32 2.08 2.44 1.98 2.37 1.88 2.44 1.92 2.32 1.82 2.25 1.94 2.25 1.98 2.13"/><polygon class="cls-2" points="1.31 2.13 1.35 2.25 1.47 2.25 1.37 2.32 1.41 2.44 1.31 2.37 1.21 2.44 1.25 2.32 1.15 2.25 1.27 2.25 1.31 2.13"/><polygon class="cls-2" points="0.64 2.13 0.68 2.25 0.8 2.25 0.7 2.32 0.73 2.44 0.64 2.37 0.54 2.44 0.58 2.32 0.48 2.25 0.6 2.25 0.64 2.13"/><path class="cls-2" d="M0,2.32l0,.12,0,0s0-.1,0-.15H.12Z"/><polygon class="cls-2" points="1.98 1.56 2.02 1.68 2.14 1.68 2.04 1.75 2.08 1.86 1.98 1.79 1.88 1.86 1.92 1.75 1.82 1.68 1.94 1.68 1.98 1.56"/><polygon class="cls-2" points="1.31 1.56 1.35 1.68 1.47 1.68 1.37 1.75 1.41 1.86 1.31 1.79 1.21 1.86 1.25 1.75 1.15 1.68 1.27 1.68 1.31 1.56"/><polygon class="cls-2" points="0.64 1.56 0.68 1.68 0.8 1.68 0.7 1.75 0.73 1.86 0.64 1.79 0.54 1.86 0.58 1.75 0.48 1.68 0.6 1.68 0.64 1.56"/><polygon class="cls-2" points="1.98 0.99 2.02 1.11 2.14 1.11 2.04 1.18 2.08 1.29 1.98 1.22 1.88 1.29 1.92 1.18 1.82 1.11 1.94 1.11 1.98 0.99"/><polygon class="cls-2" points="1.31 0.99 1.35 1.11 1.47 1.11 1.37 1.18 1.41 1.29 1.31 1.22 1.21 1.29 1.25 1.18 1.15 1.11 1.27 1.11 1.31 0.99"/><polygon class="cls-2" points="0.71 1.22 0.74 1.29 0.64 1.22 0.64 1.22 0.64 1.22 0.54 1.29 0.56 1.22 0.58 1.18 0.49 1.12 0.5 1.11 0.6 1.11 0.64 0.99 0.68 1.11 0.8 1.11 0.7 1.18 0.71 1.22"/><polygon class="cls-2" points="1.98 0.42 2.02 0.54 2.14 0.54 2.04 0.61 2.08 0.72 1.98 0.65 1.88 0.72 1.92 0.61 1.82 0.54 1.94 0.54 1.98 0.42"/><polygon class="cls-2" points="1.31 0.42 1.35 0.54 1.47 0.54 1.37 0.61 1.41 0.72 1.31 0.65 1.21 0.72 1.25 0.61 1.15 0.54 1.27 0.54 1.31 0.42"/><g class="cls-5"><path class="cls-6" d="M4.53.78A2.65,2.65,0,1,1,.78.78,2.64,2.64,0,0,1,4.53.78Z"/><path class="cls-7" d="M2.65.15a2.51,2.51,0,1,1-2.5,2.5A2.5,2.5,0,0,1,2.65.15Z"/></g></g></g></g></svg>